<?xml version="1.0" encoding="UTF-8" standalone="no"?>
<svg width="560px" height="560px" viewBox="0 0 560 560" version="1.1" xmlns="http://www.w3.org/2000/svg" xmlns:xlink="http://www.w3.org/1999/xlink" xmlns:sketch="http://www.bohemiancoding.com/sketch/ns">
    <!-- Generator: Sketch 3.2.2 (9983) - http://www.bohemiancoding.com/sketch -->
    <title>Artboard 10</title>
    <desc>Created with Sketch.</desc>
    <defs></defs>
    <g id="Page-1" stroke="none" stroke-width="1" fill="none" fill-rule="evenodd" sketch:type="MSPage">
        <g id="Artboard-10" sketch:type="MSArtboardGroup">
            <g id="Growth-hacker-+-Growth-hacker-4" sketch:type="MSLayerGroup" transform="translate(425.000000, 4.000000)" stroke-width="2">
                <g id="Growth-hacker" transform="translate(0.000000, 140.000000)" stroke="#757575" sketch:type="MSShapeGroup">
                    <circle id="Oval-39" fill="#FFFFFF" cx="65" cy="65.8969466" r="65"></circle>
                    <g id="Growth-hacker-2" transform="translate(32.150084, 33.534351)">
                        <path d="M3.72175379,1.92938931 L3.72175379,60.5171756" id="Line-8" stroke-linecap="round"></path>
                        <path d="M62.6828881,60.5171756 L3.66096571,60.5171756" id="Line-5" stroke-linecap="round"></path>
                        <path d="M4.49241147,59.3454198 C4.49241147,59.3454198 20.4283305,47.0419847 42.856661,43.5267176 C54.6610455,42.3549618 62.9241147,37.6679389 62.9241147,37.6679389" id="Line-6" stroke-linecap="round"></path>
                        <path d="M4.49241147,59.3454198 C4.49241147,59.3454198 12.1652614,25.9503817 51.1197302,11.889313 C61.7436762,7.20229007 64.1045531,7.20229005 64.1045531,7.20229005" id="Line-7" stroke-linecap="round" stroke-dasharray="5"></path>
                        <ellipse id="Oval-49" fill="#FFFFFF" cx="21.608769" cy="49.3854962" rx="3.54131535" ry="3.51526718"></ellipse>
                        <ellipse id="Oval-50" fill="#FFFFFF" cx="42.856661" cy="43.5267176" rx="3.54131535" ry="3.51526718"></ellipse>
                        <ellipse id="Oval-51" fill="#FFFFFF" cx="61.7436762" cy="37.6679389" rx="3.54131535" ry="3.51526718"></ellipse>
                        <path d="M0.548273635,3.143388 L3.28689432,0.257838818 C3.43125013,0.105738241 3.66434785,0.104738023 3.80965295,0.257838818 L6.54827364,3.143388" id="Rectangle-52" stroke-linecap="round"></path>
                        <path d="M61.9541761,57.5219893 L64.8397252,60.2606099 C64.9918258,60.4049657 64.992826,60.6380635 64.8397252,60.7833686 L61.9541761,63.5219893" id="Rectangle-53" stroke-linecap="round"></path>
                    </g>
                </g>
                <g id="Growth-hacker-3" sketch:type="MSShapeGroup">
                    <circle id="Oval-39" stroke="#757575" fill="#FFE3CE" cx="65" cy="65.8969466" r="65"></circle>
                    <g id="Growth-hacker-4" transform="translate(32.150084, 33.534351)" stroke="#B38F6B">
                        <path d="M3.72175379,1.92938931 L3.72175379,60.5171756" id="Line-8" stroke-linecap="round"></path>
                        <path d="M62.6828881,60.5171756 L3.66096571,60.5171756" id="Line-5" stroke-linecap="round"></path>
                        <path d="M4.49241147,59.3454198 C4.49241147,59.3454198 20.4283305,47.0419847 42.856661,43.5267176 C54.6610455,42.3549618 62.9241147,37.6679389 62.9241147,37.6679389" id="Line-6" stroke-linecap="round"></path>
                        <path d="M4.49241147,59.3454198 C4.49241147,59.3454198 12.1652614,25.9503817 51.1197302,11.889313 C61.7436762,7.20229007 64.1045531,7.20229005 64.1045531,7.20229005" id="Line-7" stroke-linecap="round" stroke-dasharray="5"></path>
                        <ellipse id="Oval-49" fill="#FFE3CE" cx="21.608769" cy="49.3854962" rx="3.54131535" ry="3.51526718"></ellipse>
                        <ellipse id="Oval-50" fill="#FFE3CE" cx="42.856661" cy="43.5267176" rx="3.54131535" ry="3.51526718"></ellipse>
                        <ellipse id="Oval-51" fill="#FFE3CE" cx="61.7436762" cy="37.6679389" rx="3.54131535" ry="3.51526718"></ellipse>
                        <path d="M0.548273635,3.143388 L3.28689432,0.257838818 C3.43125013,0.105738241 3.66434785,0.104738023 3.80965295,0.257838818 L6.54827364,3.143388" id="Rectangle-52" stroke-linecap="round"></path>
                        <path d="M61.9541761,57.5219893 L64.8397252,60.2606099 C64.9918258,60.4049657 64.992826,60.6380635 64.8397252,60.7833686 L61.9541761,63.5219893" id="Rectangle-53" stroke-linecap="round"></path>
                    </g>
                </g>
            </g>
            <g id="Android-+-Android-3" sketch:type="MSLayerGroup" transform="translate(285.000000, 4.000000)" stroke="#757575" stroke-width="2">
                <g id="Android" transform="translate(0.000000, 140.000000)" sketch:type="MSShapeGroup">
                    <circle id="Oval-37" fill="#FFFFFF" cx="65.2310287" cy="65.9038462" r="65"></circle>
                    <path d="M42.6591327,58.1770981 L42.6591327,42.7124737 C42.6591327,40.3331201 40.6041224,38.3302317 38.1642666,38.3302317 C35.6602934,38.3302317 33.6052831,40.3331201 33.6052831,42.7124737 L33.6052831,58.1770981 C33.6052831,60.6191498 35.6604349,62.6230049 38.1642666,62.6230049 C40.604264,62.6230049 42.6591327,60.6191498 42.6591327,58.1770981 L42.6591327,58.1770981 L42.6591327,58.1770981 Z" id="Shape"></path>
                    <path d="M83.1843126,52.4994624 L46.9066366,52.4994624 L46.9066366,81.1757206 C46.9066366,83.4925142 48.8322799,85.3713873 51.2078769,85.3713873 L51.4656201,85.3713873 L51.4656201,96.6425547 C51.4656201,99.0844683 53.5194981,101.088462 56.0236128,101.088462 C58.464601,101.088462 60.518479,99.0843302 60.518479,96.6425547 L60.518479,85.3713873 L69.5713379,85.3713873 L69.5713379,96.6425547 C69.5713379,99.0844683 71.6263482,101.088462 74.1301798,101.088462 C76.5701772,101.088462 78.6251875,99.0843302 78.6251875,96.6425547 L78.6251875,85.3713873 L78.9460573,85.3713873 C81.257537,85.3713873 83.1843126,83.4926523 83.1843126,81.1757206 L83.1843126,52.4994624 L83.1843126,52.4994624 Z" id="Path"></path>
                    <path d="M86.4316749,56.8817045 L86.4316749,72.3463288 C86.4316749,74.7883806 88.4866852,76.7922357 90.9907999,76.7922357 C93.4306558,76.7922357 95.4856661,74.7882425 95.4856661,72.3463288 L95.4856661,56.8817045 C95.4856661,54.5023509 93.4306558,52.4994624 90.9907999,52.4994624 C88.4866852,52.4994624 86.4316749,54.5023509 86.4316749,56.8817045 L86.4316749,56.8817045 L86.4316749,56.8817045 Z" id="Path"></path>
                    <path d="M46.9066366,49.307789 L83.1843126,49.307789 C83.1843126,43.4218961 80.2312349,38.1617418 75.6721099,34.9691075 L79.4591376,31.2739213 C79.9103651,30.8360009 79.9103651,30.1467355 79.4591376,29.7088151 C79.0100331,29.2708947 78.3046008,29.2708947 77.8554964,29.7088151 L73.6813585,33.7794998 C71.1131264,32.4011071 68.1600487,31.5878264 65.0764717,31.5878264 C61.9309005,31.5878264 58.9779643,32.4011071 56.4097322,33.7794998 L52.2354528,29.7088151 C51.8506072,29.2708947 51.0796422,29.2708947 50.6947966,29.7088151 C50.2458337,30.1467355 50.2458337,30.8360009 50.6947966,31.2739213 L54.4188393,34.9691075 C49.9238316,38.1617418 46.9066366,43.4218961 46.9066366,49.307789 L46.9066366,49.307789 Z" id="Path"></path>
                    <path d="M71.3006317,41.2241637 C71.8591907,41.2241637 72.2932332,41.6584699 72.2932332,42.2176245 C72.2932332,42.6977039 71.8547642,43.1280099 71.3006317,43.1280099 C70.8265993,43.1280099 70.391041,42.6924708 70.391041,42.2176245 C70.391041,41.6643367 70.8227764,41.2241637 71.3006317,41.2241637 L71.3006317,41.2241637 Z" id="Path"></path>
                    <path d="M58.974616,43.1280099 C58.4246274,43.1280099 58.0236128,42.7246228 58.0236128,42.2176245 C58.0236128,41.6315811 58.4208356,41.2241637 58.974616,41.2241637 C59.4825201,41.2242219 59.9258051,41.6699437 59.9258051,42.2176245 C59.9258051,42.6866808 59.4782907,43.1280099 58.974616,43.1280099 L58.974616,43.1280099 Z" id="Path"></path>
                </g>
                <g id="Android-2" sketch:type="MSShapeGroup">
                    <circle id="Oval-37" fill="#E6FFCC" cx="65.2310287" cy="65.9038462" r="65"></circle>
                    <path d="M42.6591327,58.1770981 L42.6591327,42.7124737 C42.6591327,40.3331201 40.6041224,38.3302317 38.1642666,38.3302317 C35.6602934,38.3302317 33.6052831,40.3331201 33.6052831,42.7124737 L33.6052831,58.1770981 C33.6052831,60.6191498 35.6604349,62.6230049 38.1642666,62.6230049 C40.604264,62.6230049 42.6591327,60.6191498 42.6591327,58.1770981 L42.6591327,58.1770981 L42.6591327,58.1770981 Z" id="Shape" fill="#36B39B"></path>
                    <path d="M83.1843126,52.4994624 L46.9066366,52.4994624 L46.9066366,81.1757206 C46.9066366,83.4925142 48.8322799,85.3713873 51.2078769,85.3713873 L51.4656201,85.3713873 L51.4656201,96.6425547 C51.4656201,99.0844683 53.5194981,101.088462 56.0236128,101.088462 C58.464601,101.088462 60.518479,99.0843302 60.518479,96.6425547 L60.518479,85.3713873 L69.5713379,85.3713873 L69.5713379,96.6425547 C69.5713379,99.0844683 71.6263482,101.088462 74.1301798,101.088462 C76.5701772,101.088462 78.6251875,99.0843302 78.6251875,96.6425547 L78.6251875,85.3713873 L78.9460573,85.3713873 C81.257537,85.3713873 83.1843126,83.4926523 83.1843126,81.1757206 L83.1843126,52.4994624 L83.1843126,52.4994624 Z" id="Path" fill="#36B39B"></path>
                    <path d="M86.4316749,56.8817045 L86.4316749,72.3463288 C86.4316749,74.7883806 88.4866852,76.7922357 90.9907999,76.7922357 C93.4306558,76.7922357 95.4856661,74.7882425 95.4856661,72.3463288 L95.4856661,56.8817045 C95.4856661,54.5023509 93.4306558,52.4994624 90.9907999,52.4994624 C88.4866852,52.4994624 86.4316749,54.5023509 86.4316749,56.8817045 L86.4316749,56.8817045 L86.4316749,56.8817045 Z" id="Path" fill="#36B39B"></path>
                    <path d="M46.9066366,49.307789 L83.1843126,49.307789 C83.1843126,43.4218961 80.2312349,38.1617418 75.6721099,34.9691075 L79.4591376,31.2739213 C79.9103651,30.8360009 79.9103651,30.1467355 79.4591376,29.7088151 C79.0100331,29.2708947 78.3046008,29.2708947 77.8554964,29.7088151 L73.6813585,33.7794998 C71.1131264,32.4011071 68.1600487,31.5878264 65.0764717,31.5878264 C61.9309005,31.5878264 58.9779643,32.4011071 56.4097322,33.7794998 L52.2354528,29.7088151 C51.8506072,29.2708947 51.0796422,29.2708947 50.6947966,29.7088151 C50.2458337,30.1467355 50.2458337,30.8360009 50.6947966,31.2739213 L54.4188393,34.9691075 C49.9238316,38.1617418 46.9066366,43.4218961 46.9066366,49.307789 L46.9066366,49.307789 Z" id="Path" fill="#36B39B"></path>
                    <path d="M71.3006317,41.2241637 C71.8591907,41.2241637 72.2932332,41.6584699 72.2932332,42.2176245 C72.2932332,42.6977039 71.8547642,43.1280099 71.3006317,43.1280099 C70.8265993,43.1280099 70.391041,42.6924708 70.391041,42.2176245 C70.391041,41.6643367 70.8227764,41.2241637 71.3006317,41.2241637 L71.3006317,41.2241637 Z" id="Path" fill="#FFFFFF"></path>
                    <path d="M58.974616,43.1280099 C58.4246274,43.1280099 58.0236128,42.7246228 58.0236128,42.2176245 C58.0236128,41.6315811 58.4208356,41.2241637 58.974616,41.2241637 C59.4825201,41.2242219 59.9258051,41.6699437 59.9258051,42.2176245 C59.9258051,42.6866808 59.4782907,43.1280099 58.974616,43.1280099 L58.974616,43.1280099 Z" id="Path" fill="#FFFFFF"></path>
                </g>
            </g>
            <g id="UIUX-+-UIUX-3" sketch:type="MSLayerGroup" transform="translate(145.000000, 5.000000)" stroke="#757575">
                <g id="UIUX" transform="translate(0.000000, 140.000000)" sketch:type="MSShapeGroup">
                    <circle id="Oval-35" stroke-width="2" fill="#FFFFFF" cx="65.4620573" cy="65" r="65"></circle>
                    <g id="UI-Designer-2" transform="translate(40.236088, 35.423077)">
                        <rect id="Rectangle-56" stroke-width="2" x="0" y="22.4346154" width="29.5109612" height="5.90384615"></rect>
                        <path d="M20.0350698,41.1461538 L24.7858828,41.1461538 C27.3886057,41.1461538 29.5109612,39.0315603 29.5109612,36.4230769 L29.5109612,31.7 L0,31.7 L0,36.4230769 C0,39.0262525 2.11548969,41.1461538 4.72507846,41.1461538 L9.4761041,41.1461538 C9.45456693,41.3403228 9.44350759,41.5376457 9.44350759,41.7375464 L9.44350759,54.723992 C9.44350759,57.6660036 11.8217589,60.0384615 14.7554806,60.0384615 C17.6832328,60.0384615 20.0674536,57.6590925 20.0674536,54.723992 L20.0674536,41.7375464 C20.0674536,41.5375961 20.0564683,41.3402766 20.0350698,41.1461538 Z" id="Rectangle-58" stroke-width="2" stroke-linecap="round"></path>
                        <path d="M0,0.180769231 C0,0.180769231 2.95109612,0.180769244 4.42664418,0.180769231 C5.90219224,0.180769217 8.29803746,3.06989584 8.85328836,4.81301775 C9.34846927,3.25847605 11.8043845,0.180769231 14.7554806,0.180769231 L29.5109612,0.180769231 L29.5109612,20.2538462 L0,20.2538462 L0,0.180769231 Z" id="Rectangle-55" stroke-width="2"></path>
                        <rect id="Rectangle-59" stroke-width="2" x="35.4131535" y="0" width="14.1652614" height="59.0384615"></rect>
                        <ellipse id="Oval-53" cx="42.4957841" cy="7.08461538" rx="2.3608769" ry="2.36153846"></ellipse>
                        <path d="M37.1838111,18.8923077 L39.544688,18.8923077" id="Line" stroke-width="2" stroke-linecap="round"></path>
                        <path d="M37.1838111,22.4346154 L39.544688,22.4346154" id="Line-3" stroke-width="2" stroke-linecap="round"></path>
                        <path d="M37.1838111,25.9769231 L39.544688,25.9769231" id="Line-9" stroke-width="2" stroke-linecap="round"></path>
                        <path d="M37.1838111,29.5192308 L39.544688,29.5192308" id="Line-4" stroke-width="2" stroke-linecap="round"></path>
                        <path d="M37.1838111,36.6038462 L39.544688,36.6038462" id="Line-14" stroke-width="2" stroke-linecap="round"></path>
                        <path d="M37.1838111,40.1461538 L39.544688,40.1461538" id="Line-13" stroke-width="2" stroke-linecap="round"></path>
                        <path d="M37.1838111,43.6884615 L39.544688,43.6884615" id="Line-12" stroke-width="2" stroke-linecap="round"></path>
                        <path d="M37.1838111,47.2307692 L39.544688,47.2307692" id="Line-11" stroke-width="2" stroke-linecap="round"></path>
                        <path d="M37.1838111,33.0615385 L41.9055649,33.0615385" id="Line-10" stroke-width="2" stroke-linecap="round"></path>
                        <path d="M37.1838111,50.7730769 L41.9055649,50.7730769" id="Line-15" stroke-width="2" stroke-linecap="round"></path>
                        <path d="M37.1838111,15.35 L41.9055649,15.35" id="Line-16" stroke-width="2" stroke-linecap="round"></path>
                    </g>
                </g>
                <g id="UIUX-2" sketch:type="MSShapeGroup">
                    <circle id="Oval-35" stroke-width="2" fill="#FFCED0" cx="65.4620573" cy="65" r="65"></circle>
                    <g id="UI-Designer-3" transform="translate(40.236088, 35.423077)">
                        <rect id="Rectangle-56" stroke-width="2" fill="#EBEBEB" x="0" y="22.4346154" width="29.5109612" height="5.90384615"></rect>
                        <path d="M20.0350698,41.1461538 L24.7858828,41.1461538 C27.3886057,41.1461538 29.5109612,39.0315603 29.5109612,36.4230769 L29.5109612,31.7 L0,31.7 L0,36.4230769 C0,39.0262525 2.11548969,41.1461538 4.72507846,41.1461538 L9.4761041,41.1461538 C9.45456693,41.3403228 9.44350759,41.5376457 9.44350759,41.7375464 L9.44350759,54.723992 C9.44350759,57.6660036 11.8217589,60.0384615 14.7554806,60.0384615 C17.6832328,60.0384615 20.0674536,57.6590925 20.0674536,54.723992 L20.0674536,41.7375464 C20.0674536,41.5375961 20.0564683,41.3402766 20.0350698,41.1461538 Z" id="Rectangle-58" stroke-width="2" stroke-linecap="round" fill="#EACEBB"></path>
                        <path d="M0,0.180769231 C0,0.180769231 2.95109612,0.180769244 4.42664418,0.180769231 C5.90219224,0.180769217 8.29803746,3.06989584 8.85328836,4.81301775 C9.34846927,3.25847605 11.8043845,0.180769231 14.7554806,0.180769231 L29.5109612,0.180769231 L29.5109612,20.2538462 L0,20.2538462 L0,0.180769231 Z" id="Rectangle-55" stroke-width="2" fill="#FDFCBB"></path>
                        <rect id="Rectangle-59" stroke-width="2" fill="#F2FDFF" x="35.4131535" y="0" width="14.1652614" height="59.0384615"></rect>
                        <ellipse id="Oval-53" fill="#FFCED0" cx="42.4957841" cy="7.08461538" rx="2.3608769" ry="2.36153846"></ellipse>
                        <path d="M37.1838111,18.8923077 L39.544688,18.8923077" id="Line" stroke-width="2" stroke-linecap="round"></path>
                        <path d="M37.1838111,22.4346154 L39.544688,22.4346154" id="Line-3" stroke-width="2" stroke-linecap="round"></path>
                        <path d="M37.1838111,25.9769231 L39.544688,25.9769231" id="Line-9" stroke-width="2" stroke-linecap="round"></path>
                        <path d="M37.1838111,29.5192308 L39.544688,29.5192308" id="Line-4" stroke-width="2" stroke-linecap="round"></path>
                        <path d="M37.1838111,36.6038462 L39.544688,36.6038462" id="Line-14" stroke-width="2" stroke-linecap="round"></path>
                        <path d="M37.1838111,40.1461538 L39.544688,40.1461538" id="Line-13" stroke-width="2" stroke-linecap="round"></path>
                        <path d="M37.1838111,43.6884615 L39.544688,43.6884615" id="Line-12" stroke-width="2" stroke-linecap="round"></path>
                        <path d="M37.1838111,47.2307692 L39.544688,47.2307692" id="Line-11" stroke-width="2" stroke-linecap="round"></path>
                        <path d="M37.1838111,33.0615385 L41.9055649,33.0615385" id="Line-10" stroke-width="2" stroke-linecap="round"></path>
                        <path d="M37.1838111,50.7730769 L41.9055649,50.7730769" id="Line-15" stroke-width="2" stroke-linecap="round"></path>
                        <path d="M37.1838111,15.35 L41.9055649,15.35" id="Line-16" stroke-width="2" stroke-linecap="round"></path>
                    </g>
                </g>
            </g>
            <g id="Web-developer-+-Web-developer-3" sketch:type="MSLayerGroup" transform="translate(4.000000, 5.000000)">
                <g id="Web-developer" transform="translate(0.000000, 141.000000)" sketch:type="MSShapeGroup">
                    <circle id="Oval-38" stroke="#757575" stroke-width="2" fill="#FFFFFF" cx="65.9713322" cy="65.3615385" r="65"></circle>
                    <g id="Web-2" transform="translate(30.000000, 35.000000)">
                        <rect id="Rectangle-60" stroke="#979797" stroke-width="2" x="0" y="0" width="70.8263069" height="59.0384615"></rect>
                        <rect id="Rectangle-61" stroke="#979797" stroke-width="2" x="0" y="0" width="70.8263069" height="12.9884615"></rect>
                        <ellipse id="Oval-54" stroke="#979797" fill="#D8D8D8" cx="7.67284992" cy="6.49423077" rx="1.77065767" ry="1.77115385"></ellipse>
                        <ellipse id="Oval-55" stroke="#979797" fill="#D8D8D8" cx="13.5750422" cy="6.49423077" rx="1.77065767" ry="1.77115385"></ellipse>
                        <ellipse id="Oval-56" stroke="#979797" fill="#D8D8D8" cx="19.4772344" cy="6.49423077" rx="1.77065767" ry="1.77115385"></ellipse>
                        <path d="M27.9385803,42.0602915 L14.2021501,35.9996244 L14.2021501,34.0209135 L27.9385803,27.1576923 L27.9385803,30.4786058 L18.4766284,34.864979 L27.9385803,38.7532151 L27.9385803,42.0602915 Z M40.7481819,24.6393329 L33.2090535,44.8692308 L29.3772397,44.8692308 L36.916368,24.6393329 L40.7481819,24.6393329 Z M42.1038417,38.7532151 L51.5657936,34.864979 L42.1038417,30.4786058 L42.1038417,27.1576923 L55.8402719,34.0209135 L55.8402719,35.9996244 L42.1038417,42.0602915 L42.1038417,38.7532151 Z" id="&lt;/&gt;" fill-opacity="0.54" fill="#000000"></path>
                    </g>
                </g>
                <g id="Web-developer-2" sketch:type="MSShapeGroup">
                    <circle id="Oval-38" stroke="#757575" stroke-width="2" fill="#CBF0FB" cx="65.9713322" cy="65.3615385" r="65"></circle>
                    <g id="Web-3" transform="translate(30.000000, 35.000000)">
                        <rect id="Rectangle-60" stroke="#979797" stroke-width="2" fill="#FFFFFF" x="0" y="0" width="70.8263069" height="59.0384615"></rect>
                        <rect id="Rectangle-61" stroke="#979797" stroke-width="2" fill="#E9E9E9" x="0" y="0" width="70.8263069" height="12.9884615"></rect>
                        <ellipse id="Oval-54" stroke="#979797" fill="#FF6A66" cx="7.67284992" cy="6.49423077" rx="1.77065767" ry="1.77115385"></ellipse>
                        <ellipse id="Oval-55" stroke="#979797" fill="#FFF85E" cx="13.5750422" cy="6.49423077" rx="1.77065767" ry="1.77115385"></ellipse>
                        <ellipse id="Oval-56" stroke="#979797" fill="#86FF49" cx="19.4772344" cy="6.49423077" rx="1.77065767" ry="1.77115385"></ellipse>
                        <path d="M27.9385803,42.0602915 L14.2021501,35.9996244 L14.2021501,34.0209135 L27.9385803,27.1576923 L27.9385803,30.4786058 L18.4766284,34.864979 L27.9385803,38.7532151 L27.9385803,42.0602915 Z M40.7481819,24.6393329 L33.2090535,44.8692308 L29.3772397,44.8692308 L36.916368,24.6393329 L40.7481819,24.6393329 Z M42.1038417,38.7532151 L51.5657936,34.864979 L42.1038417,30.4786058 L42.1038417,27.1576923 L55.8402719,34.0209135 L55.8402719,35.9996244 L42.1038417,42.0602915 L42.1038417,38.7532151 Z" id="&lt;/&gt;" fill="#99CDFF"></path>
                    </g>
                </g>
            </g>
            <g id="support-3" sketch:type="MSLayerGroup" transform="translate(4.000000, 285.000000)" stroke="#757575" stroke-width="2">
                <ellipse id="Oval-44" fill="#F9FFCE" sketch:type="MSShapeGroup" cx="65.8263069" cy="65.0576923" rx="64.9241147" ry="64.9423077"></ellipse>
                <g id="support-2" transform="translate(39.000000, 33.000000)" sketch:type="MSShapeGroup">
                    <path d="M47.2175379,50.1826923 L47.2175379,63.1711538" id="Line" stroke-linecap="round"></path>
                    <path d="M33.0522766,63 L47.2175379,63" id="Line-17" stroke-linecap="round"></path>
                    <path d="M40.4366851,37.3958024 C40.8894294,35.220644 43.3435615,33.7690901 45.9064709,34.1519225 L45.9064709,34.1519225 C48.4746059,34.5355354 50.1890689,36.6117512 49.7367245,38.7849879 L47.276637,50.6041976 C46.8238927,52.779356 44.3697605,54.2309099 41.8068512,53.8480775 L41.8068512,53.8480775 C39.2387162,53.4644646 37.5242532,51.3882488 37.9765975,49.2150121 L40.4366851,37.3958024 L40.4366851,37.3958024 Z" id="Rectangle-57" fill="#D8D8D8"></path>
                    <path d="M13.8634836,37.3958024 C13.4107393,35.220644 10.9566071,33.7690901 8.39369773,34.1519225 L8.39369773,34.1519225 C5.82556274,34.5355354 4.11109977,36.6117512 4.56344409,38.7849879 L7.0235316,50.6041976 C7.47627591,52.779356 9.93040809,54.2309099 12.4933174,53.8480775 L12.4933174,53.8480775 C15.0614524,53.4644646 16.7759154,51.3882488 16.3235711,49.2150121 L13.8634836,37.3958024 L13.8634836,37.3958024 Z" id="Rectangle-62" fill="#D8D8D8"></path>
                    <path d="M30.6942012,65.5 C32.3224993,65.5 33.6424958,64.3903379 33.6424958,63 L33.6424958,63 C33.6424958,61.6192881 32.311329,60.5 30.6942012,60.5 L24.7864059,60.5 C23.1581077,60.5 21.8381113,61.6096621 21.8381113,63 L21.8381113,63 C21.8381113,64.3807119 23.1692781,65.5 24.7864059,65.5 L30.6942012,65.5 L30.6942012,65.5 Z" id="Rectangle-63" fill="#D8D8D8"></path>
                    <path d="M48.3979764,41.5438596 L54.3001686,28.200735 C54.3001686,12.6258995 42.1446618,0 27.1500843,0 C12.1555068,0 0,12.6258989 0,28.2007344 L5.34100019,40.4210526" id="Oval-56" stroke-linecap="round"></path>
                </g>
            </g>
            <g id="support-4" sketch:type="MSLayerGroup" transform="translate(4.000000, 425.000000)" stroke="#757575" stroke-width="2">
                <ellipse id="Oval-44" fill="#FFFFFF" sketch:type="MSShapeGroup" cx="65.8263069" cy="65.0576923" rx="64.9241147" ry="64.9423077"></ellipse>
                <g id="support-2" transform="translate(39.000000, 33.000000)" sketch:type="MSShapeGroup">
                    <path d="M47.2175379,50.1826923 L47.2175379,63.1711538" id="Line" stroke-linecap="round"></path>
                    <path d="M33.0522766,63 L47.2175379,63" id="Line-17" stroke-linecap="round"></path>
                    <path d="M40.4366851,37.3958024 C40.8894294,35.220644 43.3435615,33.7690901 45.9064709,34.1519225 L45.9064709,34.1519225 C48.4746059,34.5355354 50.1890689,36.6117512 49.7367245,38.7849879 L47.276637,50.6041976 C46.8238927,52.779356 44.3697605,54.2309099 41.8068512,53.8480775 L41.8068512,53.8480775 C39.2387162,53.4644646 37.5242532,51.3882488 37.9765975,49.2150121 L40.4366851,37.3958024 L40.4366851,37.3958024 Z" id="Rectangle-57"></path>
                    <path d="M13.8634836,37.3958024 C13.4107393,35.220644 10.9566071,33.7690901 8.39369773,34.1519225 L8.39369773,34.1519225 C5.82556274,34.5355354 4.11109977,36.6117512 4.56344409,38.7849879 L7.0235316,50.6041976 C7.47627591,52.779356 9.93040809,54.2309099 12.4933174,53.8480775 L12.4933174,53.8480775 C15.0614524,53.4644646 16.7759154,51.3882488 16.3235711,49.2150121 L13.8634836,37.3958024 L13.8634836,37.3958024 Z" id="Rectangle-62"></path>
                    <path d="M30.6942012,65.5 C32.3224993,65.5 33.6424958,64.3903379 33.6424958,63 L33.6424958,63 C33.6424958,61.6192881 32.311329,60.5 30.6942012,60.5 L24.7864059,60.5 C23.1581077,60.5 21.8381113,61.6096621 21.8381113,63 L21.8381113,63 C21.8381113,64.3807119 23.1692781,65.5 24.7864059,65.5 L30.6942012,65.5 L30.6942012,65.5 Z" id="Rectangle-63"></path>
                    <path d="M48.3979764,41.5438596 L54.3001686,28.200735 C54.3001686,12.6258995 42.1446618,0 27.1500843,0 C12.1555068,0 0,12.6258989 0,28.2007344 L5.34100019,40.4210526" id="Oval-56" stroke-linecap="round"></path>
                </g>
            </g>
            <g id="devOps-+-devOps-3" sketch:type="MSLayerGroup" transform="translate(145.000000, 285.000000)" stroke-width="2" stroke="#757575">
                <g id="devOps" sketch:type="MSShapeGroup">
                    <ellipse id="Oval-43" fill="#CEFFDA" cx="65.3355818" cy="65.0576923" rx="64.9241147" ry="64.9423077"></ellipse>
                    <g id="Dev-Ops-2" transform="translate(31.000000, 37.000000)">
                        <path d="M30.6913997,46.05 C30.6913997,46.05 33.2036739,44.8692308 34.232715,44.8692308 C35.1710714,44.8692308 37.7740304,46.05 37.7740304,46.05" id="Line" stroke-linecap="round"></path>
                        <path d="M10.7789106,42.6574577 C12.2823999,41.1535471 30.8277901,42.5846543 30.8277901,42.5846543 C31.3800586,42.6248625 31.8207163,43.0962013 31.8018256,43.6532749 C31.8018256,43.6532749 31.8277607,51.6809213 28.8207821,53.1848319 C25.8138036,54.6887425 11.7768627,54.6830055 11.7768627,54.6830055 C11.225709,54.6861739 10.7190227,54.2469954 10.6476897,53.6881262 C10.6476897,53.6881262 9.27542134,44.1613683 10.7789106,42.6574577 Z" id="Rectangle-64" fill="#B0FAFF"></path>
                        <path d="M37.928995,42.6574577 C39.4324842,41.1535471 57.9778744,42.5846543 57.9778744,42.5846543 C58.530143,42.6248625 58.9708006,43.0962013 58.9519099,43.6532749 C58.9519099,43.6532749 58.977845,51.6809213 55.9708665,53.1848319 C52.9638879,54.6887425 38.926947,54.6830055 38.926947,54.6830055 C38.3757933,54.6861739 37.869107,54.2469954 37.797774,53.6881262 C37.797774,53.6881262 36.4255057,44.1613683 37.928995,42.6574577 Z" id="Rectangle-66" fill="#B0FAFF" transform="translate(48.067818, 48.319178) scale(-1, 1) translate(-48.067818, -48.319178) "></path>
                        <path d="M0,30.3168612 C0,29.2067773 0.881557527,28.4064645 1.98332017,28.5284774 C1.98332017,28.5284774 23.5251573,31.0148019 34.232715,31.0148019 C44.7758106,31.0148019 66.4905602,28.5261837 66.4905602,28.5261837 C67.5812507,28.4050637 68.46543,29.1985192 68.46543,30.3168612 L68.46543,35.7746307 C68.46543,36.8847146 67.5747335,37.7846154 66.471888,37.7846154 L1.99354204,37.7846154 C0.892539175,37.7846154 0,36.8929727 0,35.7746307 L0,30.3168612 Z" id="Rectangle-63" fill="#E5DF97"></path>
                        <path d="M38.9544688,0.375814048 C40.9997753,0.704812619 42.9747928,1.2440558 44.856661,1.97067684 L44.856661,1.97067684 L44.856661,5.32222834 C44.856661,6.94511672 46.1779118,8.26538462 47.8077572,8.26538462 C49.4342861,8.26538462 50.7588533,6.94768867 50.7588533,5.32222834 L50.7588533,5.05920043 C58.5940571,10.3662989 63.7436762,19.3412173 63.7436762,29.5192308 C63.7436762,29.5192308 44.2856547,31.8807692 34.232715,31.8807692 C24.6116805,31.8807692 4.72175379,29.5192308 4.72175379,29.5192308 C4.72175379,19.3412173 9.87137293,10.3662989 17.7065767,5.05920043 L17.7065767,5.32222834 C17.7065767,6.94511672 19.0278275,8.26538462 20.6576728,8.26538462 C22.2842018,8.26538462 23.608769,6.94768867 23.608769,5.32222834 L23.608769,1.97067684 L23.608769,1.97067684 C25.8503601,1.10516074 28.2241154,0.505504415 30.6913997,0.210353998 L30.6913997,4.12487504 C30.6913997,6.41232499 32.5411507,8.26538462 34.8229342,8.26538462 C37.1000748,8.26538462 38.9544688,6.41161533 38.9544688,4.12487504 L38.9544688,0.375814048 Z" id="Oval-56" stroke-linecap="round" stroke-linejoin="round" fill="#FFFABF"></path>
                    </g>
                </g>
                <g id="devOps-2" transform="translate(0.000000, 140.000000)" sketch:type="MSShapeGroup">
                    <ellipse id="Oval-43" fill="#FFFFFF" cx="65.3355818" cy="65.0576923" rx="64.9241147" ry="64.9423077"></ellipse>
                    <g id="Dev-Ops-3" transform="translate(31.000000, 37.000000)">
                        <path d="M30.6913997,46.05 C30.6913997,46.05 33.2036739,44.8692308 34.232715,44.8692308 C35.1710714,44.8692308 37.7740304,46.05 37.7740304,46.05" id="Line" stroke-linecap="round"></path>
                        <path d="M10.7789106,42.6574577 C12.2823999,41.1535471 30.8277901,42.5846543 30.8277901,42.5846543 C31.3800586,42.6248625 31.8207163,43.0962013 31.8018256,43.6532749 C31.8018256,43.6532749 31.8277607,51.6809213 28.8207821,53.1848319 C25.8138036,54.6887425 11.7768627,54.6830055 11.7768627,54.6830055 C11.225709,54.6861739 10.7190227,54.2469954 10.6476897,53.6881262 C10.6476897,53.6881262 9.27542134,44.1613683 10.7789106,42.6574577 Z" id="Rectangle-64"></path>
                        <path d="M37.928995,42.6574577 C39.4324842,41.1535471 57.9778744,42.5846543 57.9778744,42.5846543 C58.530143,42.6248625 58.9708006,43.0962013 58.9519099,43.6532749 C58.9519099,43.6532749 58.977845,51.6809213 55.9708665,53.1848319 C52.9638879,54.6887425 38.926947,54.6830055 38.926947,54.6830055 C38.3757933,54.6861739 37.869107,54.2469954 37.797774,53.6881262 C37.797774,53.6881262 36.4255057,44.1613683 37.928995,42.6574577 Z" id="Rectangle-66" transform="translate(48.067818, 48.319178) scale(-1, 1) translate(-48.067818, -48.319178) "></path>
                        <path d="M0,30.3168612 C0,29.2067773 0.881557527,28.4064645 1.98332017,28.5284774 C1.98332017,28.5284774 23.5251573,31.0148019 34.232715,31.0148019 C44.7758106,31.0148019 66.4905602,28.5261837 66.4905602,28.5261837 C67.5812507,28.4050637 68.46543,29.1985192 68.46543,30.3168612 L68.46543,35.7746307 C68.46543,36.8847146 67.5747335,37.7846154 66.471888,37.7846154 L1.99354204,37.7846154 C0.892539175,37.7846154 0,36.8929727 0,35.7746307 L0,30.3168612 Z" id="Rectangle-63"></path>
                        <path d="M38.9544688,0.375814048 C40.9997753,0.704812619 42.9747928,1.2440558 44.856661,1.97067684 L44.856661,1.97067684 L44.856661,5.32222834 C44.856661,6.94511672 46.1779118,8.26538462 47.8077572,8.26538462 C49.4342861,8.26538462 50.7588533,6.94768867 50.7588533,5.32222834 L50.7588533,5.05920043 C58.5940571,10.3662989 63.7436762,19.3412173 63.7436762,29.5192308 C63.7436762,29.5192308 44.2856547,31.8807692 34.232715,31.8807692 C24.6116805,31.8807692 4.72175379,29.5192308 4.72175379,29.5192308 C4.72175379,19.3412173 9.87137293,10.3662989 17.7065767,5.05920043 L17.7065767,5.32222834 C17.7065767,6.94511672 19.0278275,8.26538462 20.6576728,8.26538462 C22.2842018,8.26538462 23.608769,6.94768867 23.608769,5.32222834 L23.608769,1.97067684 L23.608769,1.97067684 C25.8503601,1.10516074 28.2241154,0.505504415 30.6913997,0.210353998 L30.6913997,4.12487504 C30.6913997,6.41232499 32.5411507,8.26538462 34.8229342,8.26538462 C37.1000748,8.26538462 38.9544688,6.41161533 38.9544688,4.12487504 L38.9544688,0.375814048 Z" id="Oval-56" stroke-linecap="round" stroke-linejoin="round"></path>
                    </g>
                </g>
            </g>
            <g id="copywriter-4" sketch:type="MSLayerGroup" transform="translate(285.000000, 425.000000)">
                <ellipse id="Oval-42" stroke="#757575" stroke-width="2" fill="#FFFFFF" sketch:type="MSShapeGroup" cx="65.5666105" cy="65.0576923" rx="64.9241147" ry="64.9423077"></ellipse>
                <g id="Ghalam-2-+-Paper-2" transform="translate(36.000000, 38.000000)" sketch:type="MSShapeGroup">
                    <g id="Ghalam-2" transform="translate(45.273187, 9.526923)">
                        <path d="M0.758853288,28.1915716 C0.758853288,24.1240089 2.08684654,13.1816783 2.08684654,13.1816783 L9.39080944,13.1816783 C9.39080944,13.1816783 11.3827993,24.2553889 11.3827993,28.1915716 C11.3827993,32.5970849 9.24022013,42.9255527 9.24022013,42.9255527 C9.02652362,43.9990165 7.95918703,44.8692308 6.84422305,44.8692308 L5.29742957,44.8692308 C4.18785343,44.8692308 3.11450072,43.999128 2.90143248,42.9074374 C2.90143248,42.9074374 0.758853288,32.4657049 0.758853288,28.1915716 Z" id="Rectangle-67" stroke="#757575" stroke-width="2" fill="#FFFFFF"></path>
                        <path d="M5.90219224,1.5672028 L5.90219224,6.29027972" id="Line" stroke="#757575" stroke-linecap="square"></path>
                        <ellipse id="Oval-56" fill="#757575" cx="5.90219224" cy="6.99874126" rx="1.18043845" ry="1.18076923"></ellipse>
                        <path d="M4.32827431,2.83384615 C4.85232443,1.85097684 4.95784148,0 4.95784148,0 L6.846543,0 C6.846543,0 6.97737493,1.89845553 7.47611017,2.83384615 C8.23650927,4.25999399 10.623946,7.08461538 10.623946,7.08461538 L8.73524452,14.1692308 L3.06913997,14.1692308 L1.18043845,7.08461538 C1.18043845,7.08461538 3.59319008,4.21251531 4.32827431,2.83384615 Z" id="Path-239" stroke="#757575"></path>
                    </g>
                    <g id="Paper-2" transform="translate(0.416526, 0.080769)" stroke="#757575">
                        <path d="M0,0 L40.1349073,0 L40.1349073,46.05 C40.1349073,48.7593888 34.232715,48.4115385 34.232715,48.4115385 C34.232715,48.4115385 34.5051534,54.3153846 31.8718381,54.3153846 L0,54.3153846 L0,0 Z" id="Rectangle-66" stroke-width="2" transform="translate(20.067454, 27.157692) scale(1, -1) translate(-20.067454, -27.157692) "></path>
                        <path d="M5.31197302,28.9288462 L33.6670777,28.9288462" id="Line" stroke-linecap="square"></path>
                        <path d="M5.31197302,33.6519231 L33.6670777,33.6519231" id="Line-18" stroke-linecap="square"></path>
                        <path d="M5.31197302,38.375 L33.6670777,38.375" id="Line-19" stroke-linecap="square"></path>
                        <path d="M5.31197302,43.0980769 L20.6576728,43.0980769" id="Line-20" stroke-linecap="square"></path>
                        <path d="M7.67284992,14.1692308 L31.2816189,14.1692308" id="Line-21" stroke-width="2" stroke-linecap="square"></path>
                        <path d="M11.2141653,18.8923077 L26.5598651,18.8923077" id="Line-22" stroke-width="2" stroke-linecap="square"></path>
                    </g>
                </g>
            </g>
            <g id="copywriter-3" sketch:type="MSLayerGroup" transform="translate(285.000000, 285.000000)">
                <ellipse id="Oval-42" stroke="#757575" stroke-width="2" fill="#D2CEFF" sketch:type="MSShapeGroup" cx="65.5666105" cy="65.0576923" rx="64.9241147" ry="64.9423077"></ellipse>
                <g id="Ghalam-2-+-Paper-2" transform="translate(36.000000, 38.000000)" sketch:type="MSShapeGroup">
                    <g id="Ghalam-2" transform="translate(45.273187, 9.526923)">
                        <path d="M0.758853288,28.1915716 C0.758853288,24.1240089 2.08684654,13.1816783 2.08684654,13.1816783 L9.39080944,13.1816783 C9.39080944,13.1816783 11.3827993,24.2553889 11.3827993,28.1915716 C11.3827993,32.5970849 9.24022013,42.9255527 9.24022013,42.9255527 C9.02652362,43.9990165 7.95918703,44.8692308 6.84422305,44.8692308 L5.29742957,44.8692308 C4.18785343,44.8692308 3.11450072,43.999128 2.90143248,42.9074374 C2.90143248,42.9074374 0.758853288,32.4657049 0.758853288,28.1915716 Z" id="Rectangle-67" stroke="#757575" stroke-width="2" fill="#ACACAC"></path>
                        <path d="M4.32827431,2.83384615 C4.85232443,1.85097684 4.95784148,0 4.95784148,0 L6.846543,0 C6.846543,0 6.97737493,1.89845553 7.47611017,2.83384615 C8.23650927,4.25999399 10.623946,7.08461538 10.623946,7.08461538 L8.73524452,14.1692308 L3.06913997,14.1692308 L1.18043845,7.08461538 C1.18043845,7.08461538 3.59319008,4.21251531 4.32827431,2.83384615 Z" id="Path-239" stroke="#757575" fill="#D8D8D8"></path>
                        <path d="M5.90219224,1.5672028 L5.90219224,6.29027972" id="Line" stroke="#757575" stroke-linecap="square"></path>
                        <ellipse id="Oval-56" fill="#757575" cx="5.90219224" cy="6.99874126" rx="1.18043845" ry="1.18076923"></ellipse>
                    </g>
                    <g id="Paper-2" transform="translate(0.416526, 0.080769)" stroke="#757575">
                        <path d="M0,0 L40.1349073,0 L40.1349073,46.05 C40.1349073,48.7593888 34.232715,48.4115385 34.232715,48.4115385 C34.232715,48.4115385 34.5051534,54.3153846 31.8718381,54.3153846 L0,54.3153846 L0,0 Z" id="Rectangle-66" stroke-width="2" fill="#FEFFF6" transform="translate(20.067454, 27.157692) scale(1, -1) translate(-20.067454, -27.157692) "></path>
                        <path d="M5.31197302,28.9288462 L33.6670777,28.9288462" id="Line" stroke-linecap="square"></path>
                        <path d="M5.31197302,33.6519231 L33.6670777,33.6519231" id="Line-18" stroke-linecap="square"></path>
                        <path d="M5.31197302,38.375 L33.6670777,38.375" id="Line-19" stroke-linecap="square"></path>
                        <path d="M5.31197302,43.0980769 L20.6576728,43.0980769" id="Line-20" stroke-linecap="square"></path>
                        <path d="M7.67284992,14.1692308 L31.2816189,14.1692308" id="Line-21" stroke-width="2" stroke-linecap="square"></path>
                        <path d="M11.2141653,18.8923077 L26.5598651,18.8923077" id="Line-22" stroke-width="2" stroke-linecap="square"></path>
                    </g>
                </g>
            </g>
            <g id="Online-Marketer" sketch:type="MSLayerGroup" transform="translate(425.000000, 425.000000)" stroke="#757575">
                <ellipse id="Oval-41" stroke-width="2" fill="#FFFFFF" sketch:type="MSShapeGroup" cx="65.0758853" cy="65.0576923" rx="64.9241147" ry="64.9423077"></ellipse>
                <g id="Zarebin-2-+-Kif-2" transform="translate(29.000000, 42.000000)" sketch:type="MSShapeGroup">
                    <g id="Zarebin-2" transform="translate(55.504216, 11.792308)" stroke-width="2">
                        <ellipse id="Oval-58" cx="8.18043845" cy="8.68076923" rx="8" ry="8.5"></ellipse>
                        <path d="M8,17.4348178 L8,20.4348178" id="Line" stroke-linecap="square"></path>
                        <rect id="Rectangle-70" x="4.803635" y="19.852834" width="7.08263069" height="14.1692308" rx="2"></rect>
                    </g>
                    <g id="Kif-2" transform="translate(0.023609, 0.080769)">
                        <path d="M17.8623157,8.26538462 L1.99697004,8.26538462 C0.897176797,8.26538462 0,9.16295851 0,10.270172 L0,44.0452126 C0,45.1532609 0.894073942,46.05 1.99697004,46.05 L52.3031986,46.05 C53.4029918,46.05 54.3001686,45.1524261 54.3001686,44.0452126 L54.3001686,10.270172 C54.3001686,9.1621237 53.4060947,8.26538462 52.3031986,8.26538462 L37.6182914,8.26538462 C36.7819903,3.56708451 32.6775988,0 27.7403035,0 C22.8030082,0 18.6986168,3.56708451 17.8623157,8.26538462 Z" id="Rectangle-68" stroke-width="2"></path>
                        <path d="M1.77065767,30.7 L51.9392917,30.7" id="Line" stroke-width="2" stroke-linecap="square"></path>
                        <rect id="Rectangle-69" fill="#FFFFFF" x="23.608769" y="27.1576923" width="8.26306914" height="8.26538462" rx="2"></rect>
                        <path d="M18.296796,10.0365385 L38.3642496,10.0365385" id="Line" stroke-linecap="square"></path>
                    </g>
                </g>
            </g>
            <g id="Online-Marketer-2" sketch:type="MSLayerGroup" transform="translate(425.000000, 285.000000)" stroke="#757575">
                <ellipse id="Oval-41" stroke-width="2" fill="#FFF1FF" sketch:type="MSShapeGroup" cx="65.0758853" cy="65.0576923" rx="64.9241147" ry="64.9423077"></ellipse>
                <g id="Zarebin-2-+-Kif-2" transform="translate(29.000000, 42.000000)" sketch:type="MSShapeGroup">
                    <g id="Zarebin-2" transform="translate(55.504216, 11.792308)" stroke-width="2">
                        <ellipse id="Oval-58" fill="#CEF4FF" cx="8.18043845" cy="8.68076923" rx="8" ry="8.5"></ellipse>
                        <path d="M8,17.4348178 L8,20.4348178" id="Line" stroke-linecap="square"></path>
                        <rect id="Rectangle-70" fill="#D8D8D8" x="4.803635" y="19.852834" width="7.08263069" height="14.1692308" rx="2"></rect>
                    </g>
                    <g id="Kif-2" transform="translate(0.023609, 0.080769)">
                        <path d="M17.8623157,8.26538462 L1.99697004,8.26538462 C0.897176797,8.26538462 0,9.16295851 0,10.270172 L0,44.0452126 C0,45.1532609 0.894073942,46.05 1.99697004,46.05 L52.3031986,46.05 C53.4029918,46.05 54.3001686,45.1524261 54.3001686,44.0452126 L54.3001686,10.270172 C54.3001686,9.1621237 53.4060947,8.26538462 52.3031986,8.26538462 L37.6182914,8.26538462 C36.7819903,3.56708451 32.6775988,0 27.7403035,0 C22.8030082,0 18.6986168,3.56708451 17.8623157,8.26538462 Z" id="Rectangle-68" stroke-width="2" fill="#FFDDCE"></path>
                        <path d="M1.77065767,30.7 L51.9392917,30.7" id="Line" stroke-width="2" stroke-linecap="square"></path>
                        <rect id="Rectangle-69" fill="#C3A5A5" x="23.608769" y="27.1576923" width="8.26306914" height="8.26538462" rx="2"></rect>
                        <path d="M18.296796,10.0365385 L38.3642496,10.0365385" id="Line" stroke-linecap="square"></path>
                        <path d="M37.5337268,9.5 C37.5337268,3.92086194 33.0414743,-0.601923077 27.5,-0.601923077 C21.9585257,-0.601923077 17.4662732,3.92086194 17.4662732,9.5" id="Oval-59" stroke-width="2" fill="#FFF1FF"></path>
                    </g>
                </g>
            </g>
        </g>
    </g>
</svg>