<?xml version="1.0" encoding="UTF-8" standalone="no"?>
<svg width="204px" height="204px" viewBox="0 0 204 204" version="1.1" xmlns="http://www.w3.org/2000/svg" xmlns:xlink="http://www.w3.org/1999/xlink" xmlns:sketch="http://www.bohemiancoding.com/sketch/ns">
    <!-- Generator: Sketch 3.2.2 (9983) - http://www.bohemiancoding.com/sketch -->
    <title>prdct - Cooolkey</title>
    <desc>Created with Sketch.</desc>
    <defs>
        <path id="path-1" d="M130.271667,0 C150.35,0 160.386667,0 171.195,3.41666667 C182.995,7.71166667 192.288333,17.005 196.583333,28.805 C200,39.6116667 200,49.6516667 200,69.7283333 L200,130.271667 C200,150.35 200,160.386667 196.583333,171.195 C192.288333,182.995 182.995,192.288333 171.195,196.581667 C160.386667,200 150.35,200 130.271667,200 L69.7283333,200 C49.65,200 39.6116667,200 28.805,196.581667 C17.005,192.288333 7.71166667,182.995 3.41666667,171.195 C0,160.386667 0,150.35 0,130.271667 L0,69.7283333 C0,49.6516667 0,39.6116667 3.41666667,28.805 C7.71166667,17.005 17.005,7.71166667 28.805,3.41666667 C39.6116667,0 49.65,0 69.7283333,0 L130.271667,0 Z"></path>
    </defs>
    <g id="Page-1" stroke="none" stroke-width="1" fill="none" fill-rule="evenodd" sketch:type="MSPage">
        <g id="About" sketch:type="MSArtboardGroup" transform="translate(-898.000000, -1310.000000)">
            <g id="prdct---Cooolkey" sketch:type="MSLayerGroup" transform="translate(900.000000, 1312.000000)">
                <mask id="mask-2" sketch:name="Mask" fill="white">
                    <use xlink:href="#path-1"></use>
                </mask>
                <use id="Mask" stroke="#979797" stroke-width="2" sketch:type="MSShapeGroup" xlink:href="#path-1"></use>
                <path d="M146,93.3333333 L146,27.9978314 C146,20.2692528 139.73165,14 131.999248,14 L70.0007522,14 C62.2660831,14 56,20.2670426 56,27.9978314 L56,93.3333333 C56,103.333333 78,112 78,125.333333 L78,182.665436 C78,186.712122 81.2835291,190 85.3339675,190 L115.999366,190 C120.054835,190 123.333333,186.716204 123.333333,182.665436 C123.333333,182.665436 123.333333,137.333333 124,125.333333 C124.666667,113.333333 146,104 146,93.3333333 Z" id="Rectangle-5" stroke="#979797" stroke-width="2" opacity="0.899999976" sketch:type="MSShapeGroup" mask="url(#mask-2)"></path>
                <rect id="Rectangle-5" stroke="#979797" stroke-width="2" sketch:type="MSShapeGroup" mask="url(#mask-2)" x="134.333333" y="123.333333" width="47.3333333" height="66.6666667" rx="11"></rect>
                <rect id="Rectangle-9" stroke="#979797" stroke-width="2" sketch:type="MSShapeGroup" mask="url(#mask-2)" x="189.666667" y="123.333333" width="47.3333333" height="66.6666667" rx="11"></rect>
                <rect id="Rectangle-10" stroke="#979797" stroke-width="2" sketch:type="MSShapeGroup" mask="url(#mask-2)" x="-35.6666667" y="123.333333" width="47.3333333" height="66.6666667" rx="11"></rect>
                <rect id="Rectangle-7" stroke="#979797" stroke-width="2" sketch:type="MSShapeGroup" mask="url(#mask-2)" x="157.666667" y="31" width="47.3333333" height="66.6666667" rx="11"></rect>
                <rect id="Rectangle-8" stroke="#979797" stroke-width="2" sketch:type="MSShapeGroup" mask="url(#mask-2)" x="-3" y="31" width="47.3333333" height="66.6666667" rx="11"></rect>
                <rect id="Rectangle-6" stroke="#979797" stroke-width="2" sketch:type="MSShapeGroup" mask="url(#mask-2)" x="19" y="123.333333" width="47.3333333" height="66.6666667" rx="11"></rect>
                <path d="M114.85,56.475 C114.449998,54.9249923 113.900004,53.5000065 113.2,52.2 C112.499997,50.8999935 111.600006,49.7750048 110.5,48.825 C109.399995,47.8749952 108.112507,47.1375026 106.6375,46.6125 C105.162493,46.0874974 103.45001,45.825 101.5,45.825 C98.6499858,45.825 96.1875104,46.3999942 94.1125,47.55 C92.0374896,48.7000057 90.3500065,50.2374904 89.05,52.1625 C87.7499935,54.0875096 86.7875031,56.2749878 86.1625,58.725 C85.5374969,61.1750123 85.225,63.6749872 85.225,66.225 C85.225,68.7750128 85.5374969,71.2749878 86.1625,73.725 C86.7875031,76.1750123 87.7499935,78.3624904 89.05,80.2875 C90.3500065,82.2125096 92.0374896,83.7499943 94.1125,84.9 C96.1875104,86.0500058 98.6499858,86.625 101.5,86.625 C103.600011,86.625 105.449992,86.2625036 107.05,85.5375 C108.650008,84.8124964 110.024994,83.8125064 111.175,82.5375 C112.325006,81.2624936 113.224997,79.7750085 113.875,78.075 C114.525003,76.3749915 114.949999,74.5500098 115.15,72.6 L124.3,72.6 C124.099999,75.800016 123.412506,78.7249867 122.2375,81.375 C121.062494,84.0250133 119.47501,86.3124904 117.475,88.2375 C115.47499,90.1625096 113.125014,91.6499947 110.425,92.7 C107.724987,93.7500052 104.750016,94.275 101.5,94.275 C97.49998,94.275 93.9125159,93.5375074 90.7375,92.0625 C87.5624841,90.5874926 84.875011,88.5750128 82.675,86.025 C80.474989,83.4749872 78.7875059,80.500017 77.6125,77.1 C76.4374941,73.699983 75.85,70.0750192 75.85,66.225 C75.85,62.424981 76.4374941,58.825017 77.6125,55.425 C78.7875059,52.024983 80.474989,49.0500127 82.675,46.5 C84.875011,43.9499873 87.5624841,41.9250075 90.7375,40.425 C93.9125159,38.9249925 97.49998,38.175 101.5,38.175 C104.500015,38.175 107.324987,38.5874959 109.975,39.4125 C112.625013,40.2375041 114.96249,41.4374921 116.9875,43.0125 C119.01251,44.5875079 120.649994,46.4999888 121.9,48.75 C123.150006,51.0000112 123.924999,53.5749855 124.225,56.475 L114.85,56.475 Z" id="C" stroke="#979797" stroke-width="2" fill-opacity="0" fill="#395368" sketch:type="MSShapeGroup" mask="url(#mask-2)"></path>
            </g>
        </g>
    </g>
</svg>