<?xml version="1.0" encoding="UTF-8" standalone="no"?>
<svg width="246px" height="86px" viewBox="0 0 246 86" version="1.1" xmlns="http://www.w3.org/2000/svg" xmlns:xlink="http://www.w3.org/1999/xlink" xmlns:sketch="http://www.bohemiancoding.com/sketch/ns">
    <!-- Generator: Sketch 3.2.2 (9983) - http://www.bohemiancoding.com/sketch -->
    <title>Apple App Store - Large</title>
    <desc>Created with Sketch.</desc>
    <defs></defs>
    <g id="Page-1" stroke="none" stroke-width="1" fill="none" fill-rule="evenodd" sketch:type="MSPage">
        <g id="Recordium" sketch:type="MSArtboardGroup" transform="translate(-597.000000, -1428.000000)">
            <g id="Apple-App-Store---Large" sketch:type="MSLayerGroup" transform="translate(600.000000, 1431.000000)">
                <rect id="Rectangle-3" stroke="#5D5D5D" stroke-width="3" fill="#FFFFFF" sketch:type="MSShapeGroup" x="0" y="0" width="240" height="80" rx="5"></rect>
                <path d="M22.8684417,14 C20.7319603,14 19,15.9176092 19,18.2923182 L19,62.7076818 C19,65.0782637 20.7300445,67 22.8684417,67 L42.1315583,67 C44.2680397,67 46,65.0823908 46,62.7076818 L46,18.2923182 C46,15.9217363 44.2699555,14 42.1315583,14 L22.8684417,14 L22.8684417,14 Z M22,21 L22,60 L44,60 L44,21 L22,21 L22,21 Z M32.5,65 C33.3284271,65 34,64.3284271 34,63.5 C34,62.6715729 33.3284271,62 32.5,62 C31.6715729,62 31,62.6715729 31,63.5 C31,64.3284271 31.6715729,65 32.5,65 L32.5,65 Z M29,18 C29,18.5522847 29.3007812,19 29.6967783,19 L35.3032217,19 C35.6880417,19 36,18.5361328 36,18 C36,17.4477153 35.6992188,17 35.3032217,17 L29.6967783,17 C29.3119583,17 29,17.4638672 29,18 Z" id="iPhone-Vector" fill="#5D5D5D" sketch:type="MSShapeGroup"></path>
                <path d="M74.112,54.944 L76.848,63 L80.382,63 L71.642,37.388 L67.652,37.388 L58.95,63 L62.37,63 L65.03,54.944 L74.112,54.944 Z M65.714,52.36 L68.222,44.95 C68.716,43.392 69.134,41.834 69.514,40.314 L69.59,40.314 C69.97,41.796 70.35,43.316 70.92,44.988 L73.428,52.36 L65.714,52.36 Z M83.1311368,70.524 L86.4371368,70.524 L86.4371368,60.53 L86.5131368,60.53 C87.6151368,62.354 89.7431368,63.418 92.1751368,63.418 C96.5071368,63.418 100.535137,60.15 100.535137,53.538 C100.535137,47.952 97.1911368,44.19 92.7451368,44.19 C89.7431368,44.19 87.5771368,45.52 86.2091368,47.762 L86.1331368,47.762 L85.9811368,44.608 L82.9791368,44.608 C83.0551368,46.356 83.1311368,48.256 83.1311368,50.612 L83.1311368,70.524 Z M86.4371368,52.36 C86.4371368,51.904 86.5511368,51.41 86.6651368,50.992 C87.3111368,48.484 89.4391368,46.85 91.7191368,46.85 C95.2531368,46.85 97.1911368,50.004 97.1911368,53.69 C97.1911368,57.908 95.1391368,60.796 91.6051368,60.796 C89.2111368,60.796 87.1971368,59.2 86.5891368,56.882 C86.5131368,56.464 86.4371368,56.008 86.4371368,55.514 L86.4371368,52.36 Z M103.968274,70.524 L107.274274,70.524 L107.274274,60.53 L107.350274,60.53 C108.452274,62.354 110.580274,63.418 113.012274,63.418 C117.344274,63.418 121.372274,60.15 121.372274,53.538 C121.372274,47.952 118.028274,44.19 113.582274,44.19 C110.580274,44.19 108.414274,45.52 107.046274,47.762 L106.970274,47.762 L106.818274,44.608 L103.816274,44.608 C103.892274,46.356 103.968274,48.256 103.968274,50.612 L103.968274,70.524 Z M107.274274,52.36 C107.274274,51.904 107.388274,51.41 107.502274,50.992 C108.148274,48.484 110.276274,46.85 112.556274,46.85 C116.090274,46.85 118.028274,50.004 118.028274,53.69 C118.028274,57.908 115.976274,60.796 112.442274,60.796 C110.048274,60.796 108.034274,59.2 107.426274,56.882 C107.350274,56.464 107.274274,56.008 107.274274,55.514 L107.274274,52.36 Z M130.898547,61.746 C132.266547,62.658 134.964547,63.38 137.434547,63.38 C143.476547,63.38 146.402547,59.96 146.402547,56.008 C146.402547,52.246 144.198547,50.156 139.866547,48.484 C136.332547,47.116 134.774547,45.938 134.774547,43.544 C134.774547,41.796 136.104547,39.706 139.600547,39.706 C141.918547,39.706 143.628547,40.466 144.464547,40.922 L145.376547,38.224 C144.236547,37.578 142.336547,36.97 139.714547,36.97 C134.736547,36.97 131.430547,39.934 131.430547,43.924 C131.430547,47.534 134.014547,49.7 138.194547,51.182 C141.652547,52.512 143.020547,53.88 143.020547,56.274 C143.020547,58.858 141.044547,60.644 137.662547,60.644 C135.382547,60.644 133.216547,59.884 131.734547,58.972 L130.898547,61.746 Z M150.671684,40.2 L150.671684,44.608 L147.821684,44.608 L147.821684,47.154 L150.671684,47.154 L150.671684,57.186 C150.671684,59.352 151.013684,60.986 151.963684,61.974 C152.761684,62.886 154.015684,63.38 155.573684,63.38 C156.865684,63.38 157.891684,63.19 158.537684,62.924 L158.385684,60.416 C157.967684,60.53 157.321684,60.644 156.447684,60.644 C154.585684,60.644 153.939684,59.352 153.939684,57.072 L153.939684,47.154 L158.727684,47.154 L158.727684,44.608 L153.939684,44.608 L153.939684,39.326 L150.671684,40.2 Z M169.266821,44.19 C164.174821,44.19 160.146821,47.8 160.146821,53.956 C160.146821,59.77 163.984821,63.418 168.962821,63.418 C173.408821,63.418 178.120821,60.454 178.120821,53.652 C178.120821,48.028 174.548821,44.19 169.266821,44.19 L169.266821,44.19 Z M169.190821,46.698 C173.142821,46.698 174.700821,50.65 174.700821,53.766 C174.700821,57.908 172.306821,60.91 169.114821,60.91 C165.846821,60.91 163.528821,57.87 163.528821,53.842 C163.528821,50.346 165.238821,46.698 169.190821,46.698 L169.190821,46.698 Z M181.553958,63 L184.859958,63 L184.859958,53.196 C184.859958,52.626 184.935958,52.094 185.011958,51.638 C185.467958,49.13 187.139958,47.344 189.495958,47.344 C189.951958,47.344 190.293958,47.382 190.635958,47.458 L190.635958,44.304 C190.331958,44.228 190.065958,44.19 189.685958,44.19 C187.443958,44.19 185.429958,45.748 184.593958,48.218 L184.441958,48.218 L184.327958,44.608 L181.401958,44.608 C181.515958,46.318 181.553958,48.18 181.553958,50.346 L181.553958,63 Z M207.597095,54.412 C207.635095,54.07 207.711095,53.538 207.711095,52.854 C207.711095,49.472 206.115095,44.19 200.111095,44.19 C194.753095,44.19 191.485095,48.56 191.485095,54.108 C191.485095,59.656 194.867095,63.38 200.529095,63.38 C203.455095,63.38 205.469095,62.772 206.647095,62.24 L206.077095,59.846 C204.823095,60.378 203.379095,60.796 200.985095,60.796 C197.641095,60.796 194.753095,58.934 194.677095,54.412 L207.597095,54.412 Z M194.715095,52.018 C194.981095,49.7 196.463095,46.584 199.845095,46.584 C203.607095,46.584 204.519095,49.89 204.481095,52.018 L194.715095,52.018 Z" id="App-Store" fill="#5D5D5D" sketch:type="MSShapeGroup"></path>
                <path d="M66.48,24.76 L67.92,29 L69.78,29 L65.18,15.52 L63.08,15.52 L58.5,29 L60.3,29 L61.7,24.76 L66.48,24.76 Z M62.06,23.4 L63.38,19.5 C63.64,18.68 63.86,17.86 64.06,17.06 L64.1,17.06 C64.3,17.84 64.5,18.64 64.8,19.52 L66.12,23.4 L62.06,23.4 Z M70.3133333,19.32 L73.9933333,29 L75.6733333,29 L79.4733333,19.32 L77.6333333,19.32 L75.7533333,24.76 C75.4333333,25.64 75.1533333,26.44 74.9333333,27.24 L74.8733333,27.24 C74.6733333,26.44 74.4133333,25.64 74.0933333,24.76 L72.1933333,19.32 L70.3133333,19.32 Z M88.2466667,29 C88.1266667,28.34 88.0866667,27.52 88.0866667,26.68 L88.0866667,23.06 C88.0866667,21.12 87.3666667,19.1 84.4066667,19.1 C83.1866667,19.1 82.0266667,19.44 81.2266667,19.96 L81.6266667,21.12 C82.3066667,20.68 83.2466667,20.4 84.1466667,20.4 C86.1266667,20.4 86.3466667,21.84 86.3466667,22.64 L86.3466667,22.84 C82.6066667,22.82 80.5266667,24.1 80.5266667,26.44 C80.5266667,27.84 81.5266667,29.22 83.4866667,29.22 C84.8666667,29.22 85.9066667,28.54 86.4466667,27.78 L86.5066667,27.78 L86.6466667,29 L88.2466667,29 Z M86.3866667,25.74 C86.3866667,25.92 86.3466667,26.12 86.2866667,26.3 C86.0066667,27.12 85.2066667,27.92 83.9466667,27.92 C83.0466667,27.92 82.2866667,27.38 82.2866667,26.24 C82.2866667,24.36 84.4666667,24.02 86.3866667,24.06 L86.3866667,25.74 Z M92.92,29 L92.92,19.32 L91.16,19.32 L91.16,29 L92.92,29 Z M92.04,15.5 C91.4,15.5 90.94,15.98 90.94,16.6 C90.94,17.2 91.38,17.68 92,17.68 C92.7,17.68 93.14,17.2 93.12,16.6 C93.12,15.98 92.7,15.5 92.04,15.5 L92.04,15.5 Z M96.0733333,29 L97.8333333,29 L97.8333333,14.8 L96.0733333,14.8 L96.0733333,29 Z M107.986667,29 C107.866667,28.34 107.826667,27.52 107.826667,26.68 L107.826667,23.06 C107.826667,21.12 107.106667,19.1 104.146667,19.1 C102.926667,19.1 101.766667,19.44 100.966667,19.96 L101.366667,21.12 C102.046667,20.68 102.986667,20.4 103.886667,20.4 C105.866667,20.4 106.086667,21.84 106.086667,22.64 L106.086667,22.84 C102.346667,22.82 100.266667,24.1 100.266667,26.44 C100.266667,27.84 101.266667,29.22 103.226667,29.22 C104.606667,29.22 105.646667,28.54 106.186667,27.78 L106.246667,27.78 L106.386667,29 L107.986667,29 Z M106.126667,25.74 C106.126667,25.92 106.086667,26.12 106.026667,26.3 C105.746667,27.12 104.946667,27.92 103.686667,27.92 C102.786667,27.92 102.026667,27.38 102.026667,26.24 C102.026667,24.36 104.206667,24.02 106.126667,24.06 L106.126667,25.74 Z M112.34,29 L112.42,27.4 L112.48,27.4 C113.2,28.68 114.32,29.22 115.72,29.22 C117.88,29.22 120.06,27.5 120.06,24.04 C120.08,21.1 118.38,19.1 115.98,19.1 C114.42,19.1 113.3,19.8 112.68,20.88 L112.64,20.88 L112.64,14.8 L110.9,14.8 L110.9,26.5 C110.9,27.36 110.86,28.34 110.82,29 L112.34,29 Z M112.64,23.38 C112.64,23.1 112.7,22.86 112.74,22.66 C113.1,21.32 114.22,20.5 115.42,20.5 C117.3,20.5 118.3,22.16 118.3,24.1 C118.3,26.32 117.2,27.82 115.36,27.82 C114.08,27.82 113.06,26.98 112.72,25.76 C112.68,25.56 112.64,25.34 112.64,25.12 L112.64,23.38 Z M122.513333,29 L124.273333,29 L124.273333,14.8 L122.513333,14.8 L122.513333,29 Z M135.246667,24.48 C135.266667,24.3 135.306667,24.02 135.306667,23.66 C135.306667,21.88 134.466667,19.1 131.306667,19.1 C128.486667,19.1 126.766667,21.4 126.766667,24.32 C126.766667,27.24 128.546667,29.2 131.526667,29.2 C133.066667,29.2 134.126667,28.88 134.746667,28.6 L134.446667,27.34 C133.786667,27.62 133.026667,27.84 131.766667,27.84 C130.006667,27.84 128.486667,26.86 128.446667,24.48 L135.246667,24.48 Z M128.466667,23.22 C128.606667,22 129.386667,20.36 131.166667,20.36 C133.146667,20.36 133.626667,22.1 133.606667,23.22 L128.466667,23.22 Z M146.293333,19.1 C143.613333,19.1 141.493333,21 141.493333,24.24 C141.493333,27.3 143.513333,29.22 146.133333,29.22 C148.473333,29.22 150.953333,27.66 150.953333,24.08 C150.953333,21.12 149.073333,19.1 146.293333,19.1 L146.293333,19.1 Z M146.253333,20.42 C148.333333,20.42 149.153333,22.5 149.153333,24.14 C149.153333,26.32 147.893333,27.9 146.213333,27.9 C144.493333,27.9 143.273333,26.3 143.273333,24.18 C143.273333,22.34 144.173333,20.42 146.253333,20.42 L146.253333,20.42 Z M153.406667,29 L155.166667,29 L155.166667,23.18 C155.166667,22.88 155.206667,22.58 155.286667,22.36 C155.586667,21.38 156.486667,20.56 157.646667,20.56 C159.306667,20.56 159.886667,21.86 159.886667,23.42 L159.886667,29 L161.646667,29 L161.646667,23.22 C161.646667,19.9 159.566667,19.1 158.226667,19.1 C156.626667,19.1 155.506667,20 155.026667,20.92 L154.986667,20.92 L154.886667,19.32 L153.326667,19.32 C153.386667,20.12 153.406667,20.94 153.406667,21.94 L153.406667,29 Z M169.613333,17 L169.613333,19.32 L168.113333,19.32 L168.113333,20.66 L169.613333,20.66 L169.613333,25.94 C169.613333,27.08 169.793333,27.94 170.293333,28.46 C170.713333,28.94 171.373333,29.2 172.193333,29.2 C172.873333,29.2 173.413333,29.1 173.753333,28.96 L173.673333,27.64 C173.453333,27.7 173.113333,27.76 172.653333,27.76 C171.673333,27.76 171.333333,27.08 171.333333,25.88 L171.333333,20.66 L173.853333,20.66 L173.853333,19.32 L171.333333,19.32 L171.333333,16.54 L169.613333,17 Z M176.066667,29 L177.826667,29 L177.826667,23.16 C177.826667,22.82 177.846667,22.56 177.946667,22.32 C178.266667,21.36 179.166667,20.56 180.306667,20.56 C181.966667,20.56 182.546667,21.88 182.546667,23.44 L182.546667,29 L184.306667,29 L184.306667,23.24 C184.306667,19.9 182.226667,19.1 180.926667,19.1 C180.266667,19.1 179.646667,19.3 179.126667,19.6 C178.586667,19.9 178.146667,20.34 177.866667,20.84 L177.826667,20.84 L177.826667,14.8 L176.066667,14.8 L176.066667,29 Z M195.18,24.48 C195.2,24.3 195.24,24.02 195.24,23.66 C195.24,21.88 194.4,19.1 191.24,19.1 C188.42,19.1 186.7,21.4 186.7,24.32 C186.7,27.24 188.48,29.2 191.46,29.2 C193,29.2 194.06,28.88 194.68,28.6 L194.38,27.34 C193.72,27.62 192.96,27.84 191.7,27.84 C189.94,27.84 188.42,26.86 188.38,24.48 L195.18,24.48 Z M188.4,23.22 C188.54,22 189.32,20.36 191.1,20.36 C193.08,20.36 193.56,22.1 193.54,23.22 L188.4,23.22 Z" id="Available-on-the" fill="#5D5D5D" sketch:type="MSShapeGroup"></path>
            </g>
        </g>
    </g>
</svg>