<?xml version="1.0" encoding="UTF-8" standalone="no"?>
<svg width="120px" height="40px" viewBox="0 0 120 40" version="1.1" xmlns="http://www.w3.org/2000/svg" xmlns:xlink="http://www.w3.org/1999/xlink" xmlns:sketch="http://www.bohemiancoding.com/sketch/ns">
    <!-- Generator: Sketch 3.2.2 (9983) - http://www.bohemiancoding.com/sketch -->
    <title>Header Logo</title>
    <desc>Created with Sketch.</desc>
    <defs></defs>
    <g id="Page-1" stroke="none" stroke-width="1" fill="none" fill-rule="evenodd" sketch:type="MSPage">
        <g id="About" sketch:type="MSArtboardGroup" transform="translate(-326.000000, -82.000000)">
            <g id="Header" sketch:type="MSLayerGroup" transform="translate(330.000000, 85.000000)">
                <g id="Header-Logo" transform="translate(1.000000, 2.000000)" sketch:type="MSShapeGroup">
                    <g id="Pichak-Logo-2" transform="translate(15.000000, 15.000000) scale(-1, 1) translate(-15.000000, -15.000000) " fill="#FFFFFF">
                        <circle id="Oval-296" stroke="#ECECEC" stroke-width="2" cx="15" cy="15" r="15"></circle>
                        <path d="M26.4134481,24.6651977 C22.5981696,29.2120696 16.6522379,30.6923084 12.201593,29.698971 C10.4732497,25.5075216 11.0623385,19.5323581 14.8776171,14.9854862 C18.6928956,10.4386143 24.7046636,9.07534908 29.0025193,9.67640672 C30.7753154,14.1692307 30.2287266,20.1183258 26.4134481,24.6651977 Z" id="Oval-306" stroke="#BEE682" stroke-width="3"></path>
                        <path d="M6.5004649,15.4287798 C6.5004649,22.3388743 10.2247812,28.2461538 15.4080199,29.9538462 C20.2401655,28.2461538 24.0320084,22.3388743 24.0320084,15.4287798 C24.0320084,8.51868527 19.6907401,2.80411055 15.4080198,0.123937049 C10.4648859,2.80411055 6.5004649,8.51868527 6.5004649,15.4287798 Z" id="Oval-307" stroke="#BEE682" stroke-width="3" transform="translate(15.266237, 15.038892) scale(-1, 1) translate(-15.266237, -15.038892) "></path>
                        <path d="M3.57725204,24.6651977 C7.39253057,29.2120696 13.3384622,30.6923084 17.7891072,29.698971 C19.5174505,25.5075216 18.9283616,19.5323581 15.1130831,14.9854862 C11.2978045,10.4386143 5.28603649,9.07534908 0.988180834,9.67640672 C-0.78461522,14.1692307 -0.238026498,20.1183258 3.57725204,24.6651977 Z" id="Oval-301" stroke="#BEE682" stroke-width="3"></path>
                    </g>
                    <path d="M55.1923828,10.9140625 C55.1923828,12.5182372 54.6445367,13.7482054 53.5488281,14.6040039 C52.4531195,15.4598025 50.9098407,15.8876953 48.9189453,15.8876953 L47.1142578,15.8876953 L47.1142578,22 L45.1376953,22 L45.1376953,6.29492188 L49.2949219,6.29492188 C53.2265822,6.29492188 55.1923828,7.83462002 55.1923828,10.9140625 L55.1923828,10.9140625 Z M47.1142578,14.1904297 L48.6933594,14.1904297 C50.2545651,14.1904297 51.3860642,13.9379908 52.0878906,13.4331055 C52.7897171,12.9282201 53.140625,12.1171931 53.140625,11 C53.140625,9.99022933 52.8147819,9.23470303 52.1630859,8.73339844 C51.51139,8.23209385 50.4944731,7.98144531 49.1123047,7.98144531 L47.1142578,7.98144531 L47.1142578,14.1904297 Z M60.1123047,22 L58.1787109,22 L58.1787109,10.2050781 L60.1123047,10.2050781 L60.1123047,22 Z M58.0283203,7.01464844 C58.0283203,6.58495879 58.1375315,6.27343847 58.355957,6.08007812 C58.5743826,5.88671778 58.844725,5.79003906 59.1669922,5.79003906 C59.4677749,5.79003906 59.7309559,5.88671778 59.956543,6.08007812 C60.18213,6.27343847 60.2949219,6.58495879 60.2949219,7.01464844 C60.2949219,7.43717659 60.18213,7.74869691 59.956543,7.94921875 C59.7309559,8.14974059 59.4677749,8.25 59.1669922,8.25 C58.844725,8.25 58.5743826,8.14974059 58.355957,7.94921875 C58.1375315,7.74869691 58.0283203,7.43717659 58.0283203,7.01464844 L58.0283203,7.01464844 Z M68.5771484,22.2148438 C66.8798743,22.2148438 65.5585985,21.6938529 64.6132812,20.6518555 C63.667964,19.6098581 63.1953125,18.1149186 63.1953125,16.1669922 C63.1953125,14.1904198 63.6733351,12.6668348 64.6293945,11.5961914 C65.585454,10.525548 66.9479078,9.99023438 68.7167969,9.99023438 C69.2897164,9.99023438 69.8572563,10.0493158 70.4194336,10.1674805 C70.9816109,10.2856451 71.4453107,10.4378246 71.8105469,10.6240234 L71.2197266,12.2353516 C70.2242789,11.8629539 69.3756546,11.6767578 68.6738281,11.6767578 C67.4850201,11.6767578 66.6077502,12.0509403 66.0419922,12.7993164 C65.4762342,13.5476925 65.1933594,14.6630785 65.1933594,16.1455078 C65.1933594,17.5706451 65.4762342,18.6609663 66.0419922,19.4165039 C66.6077502,20.1720415 67.4456325,20.5498047 68.5556641,20.5498047 C69.5940807,20.5498047 70.6145783,20.3206403 71.6171875,19.8623047 L71.6171875,21.5810547 C70.8007772,22.0035828 69.7874409,22.2148438 68.5771484,22.2148438 L68.5771484,22.2148438 Z M82.4453125,22 L82.4453125,14.4589844 C82.4453125,13.4993442 82.2322612,12.7849958 81.8061523,12.315918 C81.3800434,11.8468401 80.7122441,11.6123047 79.8027344,11.6123047 C78.6067649,11.6123047 77.7312853,11.9453092 77.1762695,12.6113281 C76.6212537,13.2773471 76.34375,14.3766199 76.34375,15.9091797 L76.34375,22 L74.4101562,22 L74.4101562,5.28515625 L76.34375,5.28515625 L76.34375,10.1835938 C76.34375,10.8281282 76.3079431,11.379555 76.2363281,11.8378906 L76.3652344,11.8378906 C76.7161476,11.2649711 77.213864,10.8173844 77.8583984,10.4951172 C78.5029329,10.17285 79.2298137,10.0117188 80.0390625,10.0117188 C81.4713613,10.0117188 82.54915,10.353675 83.2724609,11.0375977 C83.9957718,11.7215203 84.3574219,12.8154222 84.3574219,14.3193359 L84.3574219,22 L82.4453125,22 Z M95.2929688,22 L94.9169922,20.3242188 L94.8310547,20.3242188 C94.2438122,21.0618526 93.6583688,21.5613594 93.074707,21.8227539 C92.4910453,22.0841484 91.7552128,22.2148438 90.8671875,22.2148438 C89.7070254,22.2148438 88.7975293,21.9104848 88.1386719,21.3017578 C87.4798144,20.6930308 87.1503906,19.8336644 87.1503906,18.7236328 C87.1503906,16.3316938 89.037416,15.0784511 92.8115234,14.9638672 L94.8095703,14.8886719 L94.8095703,14.1904297 C94.8095703,13.2952429 94.6162129,12.634605 94.2294922,12.2084961 C93.8427715,11.7823872 93.2233116,11.5693359 92.3710938,11.5693359 C91.7480438,11.5693359 91.1590197,11.662434 90.6040039,11.8486328 C90.0489881,12.0348317 89.5279972,12.2425119 89.0410156,12.4716797 L88.4501953,11.0214844 C89.0445993,10.7063786 89.6927048,10.4593108 90.3945312,10.2802734 C91.0963577,10.1012361 91.7910122,10.0117188 92.4785156,10.0117188 C93.903653,10.0117188 94.9635382,10.3268198 95.6582031,10.9570312 C96.3528681,11.5872427 96.7001953,12.5898369 96.7001953,13.9648438 L96.7001953,22 L95.2929688,22 Z M91.3076172,20.6572266 C92.3890028,20.6572266 93.2394175,20.3654001 93.8588867,19.7817383 C94.478356,19.1980765 94.7880859,18.369146 94.7880859,17.2949219 L94.7880859,16.2314453 L93.0478516,16.3066406 C91.6943292,16.3567711 90.7078481,16.5716127 90.0883789,16.9511719 C89.4689097,17.3307311 89.1591797,17.9287069 89.1591797,18.7451172 C89.1591797,19.3610057 89.3471661,19.8336572 89.7231445,20.1630859 C90.099123,20.4925147 90.6272752,20.6572266 91.3076172,20.6572266 L91.3076172,20.6572266 Z M102.264648,15.9306641 L102.919922,15.0927734 L103.671875,14.1904297 L107.442383,10.2050781 L109.698242,10.2050781 L104.928711,15.2431641 L110.03125,22 L107.700195,22 L103.607422,16.5 L102.264648,17.6708984 L102.264648,22 L100.352539,22 L100.352539,5.28515625 L102.264648,5.28515625 L102.264648,14.0185547 L102.178711,15.9306641 L102.264648,15.9306641 Z" id="Pichak-2" fill="#D2D2D2"></path>
                </g>
            </g>
        </g>
    </g>
</svg>