<?xml version="1.0" encoding="UTF-8" standalone="no"?>
<svg width="160px" height="160px" viewBox="0 0 160 160" version="1.1" xmlns="http://www.w3.org/2000/svg" xmlns:xlink="http://www.w3.org/1999/xlink" xmlns:sketch="http://www.bohemiancoding.com/sketch/ns">
    <!-- Generator: Sketch 3.2.2 (9983) - http://www.bohemiancoding.com/sketch -->
    <title>Pichak Logo</title>
    <desc>Created with Sketch.</desc>
    <defs></defs>
    <g id="Page-1" stroke="none" stroke-width="1" fill="none" fill-rule="evenodd" sketch:type="MSPage">
        <g id="About" sketch:type="MSArtboardGroup" transform="translate(-640.000000, -220.000000)" stroke-width="12">
            <g id="Pichak-Logo" sketch:type="MSLayerGroup" transform="translate(720.000000, 300.000000) scale(-1, 1) translate(-720.000000, -300.000000) translate(649.000000, 229.000000)">
                <circle id="Oval-296" stroke-opacity="0.1" stroke="#000000" fill="#FFFFFF" sketch:type="MSShapeGroup" cx="71" cy="71" r="71"></circle>
                <path d="M125.023654,116.748603 C106.964669,138.270463 78.8205927,145.276926 57.7542067,140.57513 C49.5733818,120.735602 52.3617357,92.4531616 70.4207208,70.9313012 C88.4797058,49.4094409 116.935408,42.9566523 137.278591,45.8016585 C145.669826,67.067692 143.082639,95.2267423 125.023654,116.748603 Z" id="Oval-306" stroke="#979797" fill="#BEE682" sketch:type="MSShapeGroup"></path>
                <path d="M30.7688672,73.0295576 C30.7688672,105.737338 48.3972976,133.698462 72.9312941,141.781538 C95.8034498,133.698462 113.751507,105.737338 113.751507,73.0295576 C113.751507,40.3217769 93.2028364,13.2727899 72.9312939,0.586635367 C49.5337934,13.2727899 30.7688672,40.3217769 30.7688672,73.0295576 Z" id="Oval-307" stroke="#979797" fill="#BEE682" sketch:type="MSShapeGroup" transform="translate(72.260187, 71.184087) scale(-1, 1) translate(-72.260187, -71.184087) "></path>
                <path d="M16.9323263,116.748603 C34.9913114,138.270463 63.1353879,145.276926 84.2017739,140.57513 C92.3825988,120.735602 89.5942449,92.4531616 71.5352599,70.9313012 C53.4762748,49.4094409 25.0205727,42.9566523 4.67738928,45.8016585 C-3.71384537,67.067692 -1.12665876,95.2267423 16.9323263,116.748603 Z" id="Oval-301" stroke="#979797" fill="#BEE682" sketch:type="MSShapeGroup"></path>
            </g>
        </g>
    </g>
</svg>