<?xml version="1.0" encoding="UTF-8" standalone="no"?>
<svg width="202px" height="202px" viewBox="0 0 202 202" version="1.1" xmlns="http://www.w3.org/2000/svg" xmlns:xlink="http://www.w3.org/1999/xlink" xmlns:sketch="http://www.bohemiancoding.com/sketch/ns">
    <!-- Generator: Sketch 3.2.2 (9983) - http://www.bohemiancoding.com/sketch -->
    <title>prdct - Recordium</title>
    <desc>Created with Sketch.</desc>
    <defs>
        <path id="path-1" d="M69.7283333,0 L130.271667,0 C150.35,0 160.386667,0 171.195,3.41666667 C182.995,7.71166667 192.288333,17.005 196.583333,28.805 C200,39.6116667 200,49.6516667 200,69.7283333 L200,130.271667 C200,150.35 200,160.386667 196.583333,171.195 C192.288333,182.995 182.995,192.288333 171.195,196.581667 C160.386667,200 150.35,200 130.271667,200 L69.7283333,200 C49.65,200 39.6116667,200 28.805,196.581667 C17.005,192.288333 7.71166667,182.995 3.41666667,171.195 C0,160.386667 0,150.35 0,130.271667 L0,69.7283333 C0,49.6516667 0,39.6116667 3.41666667,28.805 C7.71166667,17.005 17.005,7.71166667 28.805,3.41666667 C39.6116667,0 49.65,0 69.7283333,0 L69.7283333,0"></path>
    </defs>
    <g id="Page-1" stroke="none" stroke-width="1" fill="none" fill-rule="evenodd" sketch:type="MSPage">
        <g id="About" sketch:type="MSArtboardGroup" transform="translate(-619.000000, -1311.000000)">
            <g id="prdct---Recordium" sketch:type="MSLayerGroup" transform="translate(620.000000, 1312.000000)">
                <path d="M120.53,76.4083721 C120.479767,63.9172093 113.084419,55.9832558 100.587674,56.0111628 C88.0365116,56.0390698 80.8093023,63.9130233 80.7506977,76.4718605 C80.75,76.5939535 80.7493023,76.7390698 80.7493023,76.8813953 L120.532093,76.8813953 C120.531395,76.7244186 120.530698,76.5625581 120.53,76.4083721 Z M80.7493023,108.276744 L120.561395,108.276744 C120.562791,106.499767 120.563488,104.07814 120.564186,101.3 L80.7493023,101.3 L80.7493023,108.276744 Z M100.541628,131.367674 C112.987442,131.393488 120.271163,123.888605 120.544651,111.765116 L80.7388372,111.765116 C81.0409302,123.86907 88.1948837,131.340465 100.541628,131.367674 Z M80.7262791,90.8348837 C80.7255814,93.1567442 80.7234884,95.5330233 80.722093,97.8116279 L120.564186,97.8116279 C120.563488,95.574186 120.562093,93.2111628 120.56,90.8348837 L80.7262791,90.8348837 Z M120.543256,80.3697674 L80.7395349,80.3697674 C80.7360465,82.3260465 80.7325581,84.7386047 80.7297674,87.3465116 L120.556512,87.3465116 C120.553023,84.9234884 120.548837,82.5569767 120.543256,80.3697674 Z" id="Fill-1" stroke="#979797" stroke-width="2" stroke-linecap="round" stroke-linejoin="round" sketch:type="MSShapeGroup"></path>
                <path d="M100.656744,26.6118605 C59.4276744,26.6118605 26.0055814,60.0346512 26.0055814,101.263023 C26.0055814,142.492093 59.4276744,175.914186 100.656744,175.914186 C141.885814,175.914186 175.307907,142.492093 175.307907,101.263023 C175.307907,60.0346512 141.885814,26.6118605 100.656744,26.6118605 L100.656744,26.6118605 Z M105.66186,163.153721 C105.666047,161.302093 105.671628,159.076512 105.671628,157.930233 C105.671628,155.835814 106.34,154.677674 107.774419,154.677674 C111.534884,154.677674 116.803023,153.742791 116.803023,149.308372 C116.803023,148.251395 116.603488,145.891163 118.343488,144.816047 C118.395116,144.788837 118.444651,144.760233 118.496279,144.733023 C118.577907,144.688372 118.657442,144.643023 118.747442,144.603256 C118.74814,144.600465 118.747442,144.598372 118.74814,144.595581 C128.876977,139.103488 135.921395,129.089767 137.233721,117.399535 C137.673953,113.486977 137.621628,110.763256 137.58814,107.57907 C137.609767,102.324186 135.424651,101.960698 133.869535,101.960698 C133.869535,101.960698 133.869535,101.960698 133.868837,101.960698 C132.304651,101.982326 130.38186,102.760233 130.38186,107.62093 C130.38186,109.234651 130.404186,112.628837 129.806279,116.943953 C127.907907,130.615581 115.333721,141.324884 101.184884,141.324884 C101.007674,141.324884 100.82907,141.317907 100.650465,141.313721 C100.650465,141.317907 100.285581,141.324884 100.108372,141.324884 C85.9581395,141.324884 73.3755814,130.615581 71.477907,116.943953 C70.8793023,112.628837 70.9009302,109.234651 70.9009302,107.62093 C70.9009302,102.760233 68.9781395,101.982326 67.4139535,101.960698 C65.8595349,101.960698 63.6737209,102.324186 63.6953488,107.57907 C63.6611628,110.763256 63.6137209,113.486977 64.0546512,117.399535 C65.3655814,129.084186 72.4065116,139.093023 82.5276744,144.587907 C82.5290698,144.593488 82.5283721,144.597674 82.5297674,144.603256 C84.7051163,145.545116 84.4665116,148.174651 84.4665116,149.308372 C84.4665116,153.742791 89.7360465,154.677674 93.495814,154.677674 C94.9302326,154.677674 95.6006977,155.835814 95.6006977,157.930233 C95.6006977,159.075814 95.6076744,161.299302 95.6125581,163.150233 C63.7246512,160.575116 38.5637209,133.803953 38.5637209,101.263023 C38.5637209,67.0246512 66.4183721,39.17 100.656744,39.17 C134.895116,39.17 162.749767,67.0246512 162.749767,101.263023 C162.749767,133.816512 137.568605,160.596744 105.66186,163.153721 L105.66186,163.153721 Z" id="Fill-6" stroke="#979797" stroke-width="2" stroke-linecap="round" stroke-linejoin="round" sketch:type="MSShapeGroup"></path>
                <mask id="mask-2" sketch:name="Mask 2" fill="white">
                    <use xlink:href="#path-1"></use>
                </mask>
                <use id="Mask-2" stroke="#979797" stroke-width="2" sketch:type="MSShapeGroup" xlink:href="#path-1"></use>
            </g>
        </g>
    </g>
</svg>