<?xml version="1.0" encoding="UTF-8" standalone="no"?>
<svg width="200px" height="200px" viewBox="0 0 200 200" version="1.1" xmlns="http://www.w3.org/2000/svg" xmlns:xlink="http://www.w3.org/1999/xlink" xmlns:sketch="http://www.bohemiancoding.com/sketch/ns">
    <!-- Generator: Sketch 3.2.2 (9983) - http://www.bohemiancoding.com/sketch -->
    <title>prdct - Cooolkey</title>
    <desc>Created with Sketch.</desc>
    <defs>
        <path id="path-1" d="M130.271667,0 C150.35,0 160.386667,0 171.195,3.41666667 C182.995,7.71166667 192.288333,17.005 196.583333,28.805 C200,39.6116667 200,49.6516667 200,69.7283333 L200,130.271667 C200,150.35 200,160.386667 196.583333,171.195 C192.288333,182.995 182.995,192.288333 171.195,196.581667 C160.386667,200 150.35,200 130.271667,200 L69.7283333,200 C49.65,200 39.6116667,200 28.805,196.581667 C17.005,192.288333 7.71166667,182.995 3.41666667,171.195 C0,160.386667 0,150.35 0,130.271667 L0,69.7283333 C0,49.6516667 0,39.6116667 3.41666667,28.805 C7.71166667,17.005 17.005,7.71166667 28.805,3.41666667 C39.6116667,0 49.65,0 69.7283333,0 L130.271667,0 Z"></path>
    </defs>
    <g id="Page-1" stroke="none" stroke-width="1" fill="none" fill-rule="evenodd" sketch:type="MSPage">
        <g id="Recordium" sketch:type="MSArtboardGroup" transform="translate(-620.000000, -272.000000)">
            <g id="prdct---Cooolkey---text" sketch:type="MSLayerGroup" transform="translate(620.000000, 272.000000)">
                <g id="prdct---Cooolkey">
                    <mask id="mask-2" sketch:name="Mask" fill="white">
                        <use xlink:href="#path-1"></use>
                    </mask>
                    <use id="Mask" fill="#663333" sketch:type="MSShapeGroup" xlink:href="#path-1"></use>
                    <path d="M146,93.3333333 L146,27.9978314 C146,20.2692528 139.73165,14 131.999248,14 L70.0007522,14 C62.2660831,14 56,20.2670426 56,27.9978314 L56,93.3333333 C56,103.333333 78,112 78,125.333333 L78,182.665436 C78,186.712122 81.2835291,190 85.3339675,190 L115.999366,190 C120.054835,190 123.333333,186.716204 123.333333,182.665436 C123.333333,182.665436 123.333333,137.333333 124,125.333333 C124.666667,113.333333 146,104 146,93.3333333 Z" id="Rectangle-5" opacity="0.899999976" fill="#FF3D4A" sketch:type="MSShapeGroup" mask="url(#mask-2)"></path>
                    <path d="M78,182 C78,187 81,190 86,190 L115.999366,190 C120.054835,190 123.333333,186.716204 123.333333,182.665436 C123.333333,182.665436 123.333332,140 124,125 C123.333332,147 78,140 78,182 Z" id="Rectangle-11" opacity="0.899999976" fill="#B62C34" sketch:type="MSShapeGroup" mask="url(#mask-2)"></path>
                    <rect id="Rectangle-5" fill="#00BCD4" sketch:type="MSShapeGroup" mask="url(#mask-2)" x="134.333333" y="123.333333" width="47.3333333" height="66.6666667" rx="11"></rect>
                    <rect id="Rectangle-9" fill="#00E676" sketch:type="MSShapeGroup" mask="url(#mask-2)" x="189.666667" y="123.333333" width="47.3333333" height="66.6666667" rx="11"></rect>
                    <rect id="Rectangle-10" fill="#00E676" sketch:type="MSShapeGroup" mask="url(#mask-2)" x="-35.6666667" y="123.333333" width="47.3333333" height="66.6666667" rx="11"></rect>
                    <rect id="Rectangle-7" fill="#AB47BC" sketch:type="MSShapeGroup" mask="url(#mask-2)" x="157.666667" y="31" width="47.3333333" height="66.6666667" rx="11"></rect>
                    <rect id="Rectangle-8" fill="#FF7043" sketch:type="MSShapeGroup" mask="url(#mask-2)" x="-3" y="31" width="47.3333333" height="66.6666667" rx="11"></rect>
                    <rect id="Rectangle-6" fill="#FAD53E" sketch:type="MSShapeGroup" mask="url(#mask-2)" x="19" y="123.333333" width="47.3333333" height="66.6666667" rx="11"></rect>
                    <path d="M116.08,53.076 L123.3,53.076 C122.894665,50.1879856 122.03334,47.642011 120.716,45.438 C119.39866,43.233989 117.75201,41.3973407 115.776,39.928 C113.79999,38.4586593 111.545346,37.3440038 109.012,36.584 C106.478654,35.8239962 103.793348,35.444 100.956,35.444 C96.8013126,35.444 93.1153494,36.1913259 89.898,37.686 C86.6806506,39.1806741 83.9953441,41.2199871 81.842,43.804 C79.6886559,46.3880129 78.0546722,49.415316 76.94,52.886 C75.8253278,56.356684 75.268,60.0679802 75.268,64.02 C75.268,67.9720198 75.7873281,71.6706494 76.826,75.116 C77.8646719,78.5613506 79.4226563,81.550654 81.5,84.084 C83.5773437,86.617346 86.186651,88.6059928 89.328,90.05 C92.469349,91.4940072 96.1426456,92.216 100.348,92.216 C107.289368,92.216 112.761313,90.316019 116.764,86.516 C120.766687,82.715981 123.122663,77.3960342 123.832,70.556 L116.612,70.556 C116.459999,72.7853445 116.004004,74.862657 115.244,76.788 C114.483996,78.713343 113.432673,80.3726597 112.09,81.766 C110.747327,83.1593403 109.151343,84.2486627 107.302,85.034 C105.452657,85.8193373 103.337345,86.212 100.956,86.212 C97.7133171,86.212 94.9266783,85.6040061 92.596,84.388 C90.2653217,83.1719939 88.3526741,81.5380103 86.858,79.486 C85.3633259,77.4339897 84.2613369,75.0273471 83.552,72.266 C82.8426631,69.5046529 82.488,66.5786821 82.488,63.488 C82.488,60.6506525 82.8426631,57.9146798 83.552,55.28 C84.2613369,52.6453202 85.3633259,50.3020103 86.858,48.25 C88.3526741,46.1979897 90.2526551,44.5640061 92.558,43.348 C94.8633449,42.1319939 97.6373171,41.524 100.88,41.524 C104.680019,41.524 107.960653,42.486657 110.722,44.412 C113.483347,46.337343 115.269329,49.2253141 116.08,53.076 L116.08,53.076 Z" id="C" fill="#FFFFFF" sketch:type="MSShapeGroup" mask="url(#mask-2)"></path>
                </g>
            </g>
        </g>
    </g>
</svg>