<?xml version="1.0" encoding="UTF-8" standalone="no"?>
<svg width="650px" height="220px" viewBox="0 0 650 220" version="1.1" xmlns="http://www.w3.org/2000/svg" xmlns:xlink="http://www.w3.org/1999/xlink" xmlns:sketch="http://www.bohemiancoding.com/sketch/ns">
    <!-- Generator: Sketch 3.2.2 (9983) - http://www.bohemiancoding.com/sketch -->
    <title>Group</title>
    <desc>Created with Sketch.</desc>
    <defs></defs>
    <g id="Page-1" stroke="none" stroke-width="1" fill="none" fill-rule="evenodd" sketch:type="MSPage">
        <g id="About" sketch:type="MSArtboardGroup" transform="translate(-390.000000, -1917.000000)">
            <g id="Group" sketch:type="MSLayerGroup" transform="translate(398.000000, 1923.000000)">
                <g id="Panjareh-6" transform="translate(108.000000, 34.000000)" stroke-width="3" sketch:type="MSShapeGroup">
                    <path d="M20.5,2.5 L20.5,131.596863" id="Line" stroke="#F8F8F8" stroke-linecap="round"></path>
                    <path d="M39.5,2.5 L39.5,131.596863" id="Line-8" stroke="#F8F8F8" stroke-linecap="round"></path>
                    <path d="M59.5,2.5 L59.5,131.596863" id="Line-9" stroke="#F8F8F8" stroke-linecap="round"></path>
                    <rect id="Rectangle-157" stroke="#D0D0D0" x="0" y="0" width="80" height="135"></rect>
                    <path d="M61,33 L17,74" id="Line-10" stroke="#EDEDED" stroke-linecap="round"></path>
                    <path d="M61,53 L38.9493365,73.5472091" id="Line-11" stroke="#EDEDED" stroke-linecap="round"></path>
                </g>
                <g id="Panjareh-4" transform="translate(18.000000, 33.500000)" stroke-width="3" sketch:type="MSShapeGroup">
                    <path d="M20.5,2.5 L20.5,131.596863" id="Line" stroke="#F8F8F8" stroke-linecap="round"></path>
                    <path d="M39.5,2.5 L39.5,131.596863" id="Line-8" stroke="#F8F8F8" stroke-linecap="round"></path>
                    <path d="M59.5,2.5 L59.5,131.596863" id="Line-9" stroke="#F8F8F8" stroke-linecap="round"></path>
                    <rect id="Rectangle-157" stroke="#D0D0D0" x="0" y="0" width="80" height="135"></rect>
                    <path d="M61,33 L17,74" id="Line-10" stroke="#EDEDED" stroke-linecap="round"></path>
                    <path d="M61,53 L38.9493365,73.5472091" id="Line-11" stroke="#EDEDED" stroke-linecap="round"></path>
                </g>
                <g id="Panjareh-5" transform="translate(552.000000, 34.500000)" sketch:type="MSShapeGroup">
                    <path d="M24.5,2.5 L24.5,131.596863" id="Line" stroke="#F8F8F8" stroke-width="3" stroke-linecap="round"></path>
                    <path d="M43.5,2.5 L43.5,131.596863" id="Line-8" stroke="#F8F8F8" stroke-width="3" stroke-linecap="round"></path>
                    <path d="M63.5,2.5 L63.5,131.596863" id="Line-9" stroke="#F8F8F8" stroke-width="3" stroke-linecap="round"></path>
                    <rect id="Rectangle-157" stroke="#D0D0D0" stroke-width="3" transform="translate(44.000000, 67.500000) scale(-1, 1) translate(-44.000000, -67.500000) " x="4" y="0" width="80" height="135"></rect>
                    <path d="M62,18 L28.5,49" id="Line-10" stroke="#EDEDED" stroke-width="3" stroke-linecap="round"></path>
                    <path d="M66.0506635,28.4527909 L51.5,41.9999996" id="Line-11" stroke="#EDEDED" stroke-width="3" stroke-linecap="round"></path>
                    <rect id="Rectangle-158" stroke="#D0D0D0" stroke-width="2" fill="#FFFFFF" x="0" y="71" width="20" height="5" rx="4"></rect>
                </g>
                <g id="KerKereh-2" transform="translate(4.000000, 31.500000)" sketch:type="MSShapeGroup">
                    <rect id="Rectangle-165" stroke="#D0D0D0" stroke-width="2" fill="#F6F6F6" x="0" y="0" width="197" height="12" rx="2"></rect>
                    <rect id="Rectangle-166" fill="#E5E5E5" x="10" y="14" width="180" height="4"></rect>
                    <rect id="Rectangle-167" fill="#E5E5E5" x="10" y="20" width="180" height="4"></rect>
                    <rect id="Rectangle-168" fill="#E5E5E5" x="10" y="26" width="180" height="4"></rect>
                    <rect id="Rectangle-169" fill="#E5E5E5" x="10" y="32" width="180" height="4"></rect>
                    <rect id="Rectangle-174" fill="#E5E5E5" x="10" y="38" width="180" height="4"></rect>
                    <rect id="Rectangle-173" fill="#E5E5E5" x="10" y="44" width="180" height="4"></rect>
                    <rect id="Rectangle-172" fill="#E5E5E5" x="10" y="50" width="180" height="4"></rect>
                    <rect id="Rectangle-171" fill="#E5E5E5" x="10" y="56" width="180" height="4"></rect>
                    <path d="M7,12.5 L7,87.5" id="Line" stroke="#D0D0D0" stroke-width="2" stroke-linecap="round"></path>
                    <path d="M3,12 L3,105.5" id="Line-18" stroke="#D0D0D0" stroke-width="2" stroke-linecap="round"></path>
                    <rect id="Rectangle-170" stroke="#D0D0D0" x="1" y="105" width="4" height="9" rx="2"></rect>
                </g>
                <g id="ghafaseh-2" transform="translate(318.000000, 0.500000)" sketch:type="MSShapeGroup">
                    <rect id="Rectangle-159" stroke="#D0D0D0" stroke-width="2" x="4" y="11" width="20" height="28"></rect>
                    <rect id="Rectangle-161" stroke="#D0D0D0" stroke-width="2" x="27" y="45" width="16" height="21"></rect>
                    <rect id="Rectangle-162" stroke="#D0D0D0" stroke-width="2" x="8" y="45" width="16" height="21"></rect>
                    <rect id="Rectangle-160" stroke="#D0D0D0" stroke-width="2" x="38" y="13" width="16" height="16"></rect>
                    <path d="M50.3076099,67.0910665 C50.7239997,66.9113728 51,66.5967976 51,66.238764 L51,38.261236 C51,37.7027458 50.3284271,37.25 49.5,37.25 C49.4926491,37.25 49.4853106,37.2500356 49.4779848,37.2501067 C49.4738348,37.2500356 49.4696789,37.25 49.4655172,37.25 L1.53448276,37.25 C0.963153707,37.25 0.5,37.9215729 0.5,38.75 C0.5,39.5784271 0.963153707,40.25 1.53448276,40.25 L48,40.25 L48,40.25 L48,64.75 L26.619403,64.75 C26.0011738,64.75 25.5,65.4215729 25.5,66.25 C25.5,67.0784271 26.0011738,67.75 26.619403,67.75 L49.380597,67.75 C49.7662143,67.75 50.1062903,67.4887194 50.3076099,67.0910665 Z" id="Line-14" fill="#F3F3F3" transform="translate(25.750000, 52.500000) scale(-1, -1) translate(-25.750000, -52.500000) "></path>
                    <path d="M59.3076099,30.0910665 C59.7239997,29.9113728 60,29.5967976 60,29.238764 L60,1.26123596 C60,0.702745759 59.3284271,0.25 58.5,0.25 C58.4926491,0.25 58.4853106,0.250035647 58.4779848,0.250106699 C58.4738348,0.250035633 58.4696789,0.25 58.4655172,0.25 L10.5344828,0.25 C9.96315371,0.25 9.5,0.921572875 9.5,1.75 C9.5,2.57842712 9.96315371,3.25 10.5344828,3.25 L57,3.25 L57,3.25 L57,27.75 L35.619403,27.75 C35.0011738,27.75 34.5,28.4215729 34.5,29.25 C34.5,30.0784271 35.0011738,30.75 35.619403,30.75 L58.380597,30.75 C58.7662143,30.75 59.1062903,30.4887194 59.3076099,30.0910665 Z" id="Line-15" fill="#F3F3F3"></path>
                    <path d="M8.5,25.5 L19.5,25.5" id="Line" stroke="#F3F3F3" stroke-linecap="square"></path>
                    <path d="M8.5,28.5 L19.5,28.5" id="Line-16" stroke="#F3F3F3" stroke-linecap="square"></path>
                    <path d="M8.5,31.5 L19.5,31.5" id="Line-17" stroke="#F3F3F3" stroke-linecap="square"></path>
                    <circle id="Oval-163" fill="#F3F3F3" cx="14" cy="19" r="3"></circle>
                    <path d="M31.5,57.5 L38.5,57.5" id="Line-20" stroke="#F3F3F3" stroke-linecap="square"></path>
                    <path d="M31.5,60.5 L38.5,60.5" id="Line-19" stroke="#F3F3F3" stroke-linecap="square"></path>
                    <circle id="Oval-164" fill="#F3F3F3" cx="35" cy="53" r="2"></circle>
                    <polygon id="Star-1" fill="#F3F3F3" points="46 23.5 44.2366442 24.427051 44.5734152 22.4635255 43.1468305 21.072949 45.1183221 20.7864745 46 19 46.8816779 20.7864745 48.8531695 21.072949 47.4265848 22.4635255 47.7633558 24.427051 "></polygon>
                </g>
                <g id="Group-3" transform="translate(69.000000, 83.500000)" sketch:type="MSShapeGroup">
                    <path d="M120.5,25.5 C120.5,25.5 133,112 120.5,122 C112.430327,128.455738 104,113 86,113 C78.1946149,113 73.1066341,119.870037 64,122 C52.1058236,124.781945 28,119 28,119 C28,119 9,123 0,123" id="Line" stroke="#EEEEEE" stroke-width="2" stroke-linecap="square"></path>
                    <path d="M87,56 L97,56 L94,126 L87,126 L87,56 Z" id="Rectangle-139" stroke="#707070" stroke-width="3" fill="#FFFFFF"></path>
                    <path d="M207,56 L217,56 L217,126 L210,126 L207,56 Z" id="Rectangle-140" stroke="#707070" stroke-width="3"></path>
                    <rect id="Rectangle-142" stroke="#D0D0D0" stroke-width="2" x="136" y="38" width="11" height="14"></rect>
                    <path d="M187,22 C187,22 180,49 166,49 C152,49 150,39.5 150,39.5" id="Line" stroke="#EEEEEE" stroke-width="2" stroke-linecap="round"></path>
                    <path d="M233,60 L233,50 L73,50 L73,60 L233,60 L233,60 Z" id="Rectangle-141" stroke="#707070" stroke-width="3" fill="#FFFFFF"></path>
                    <rect id="Rectangle-141" stroke="#707070" stroke-width="3" fill="#F3F3F3" x="106" y="0" width="70" height="40" rx="2"></rect>
                    <rect id="Rectangle-151" stroke="#707070" stroke-width="3" x="186" y="0" width="30" height="50"></rect>
                    <path d="M189.5,19.5 L212.5,19.5" id="Line" stroke="#D0D0D0" stroke-linecap="square"></path>
                    <path d="M189.5,29.5 L212.5,29.5" id="Line-6" stroke="#D0D0D0" stroke-linecap="square"></path>
                    <circle id="Oval-162" fill="#D0D0D0" cx="201" cy="40" r="2"></circle>
                </g>
                <g id="Group-4" transform="translate(303.000000, 78.500000)" sketch:type="MSShapeGroup">
                    <path d="M104.000001,27.0000001 C104.000001,27.0000001 102.000001,118.961679 90.0000008,125.961679 C81.2665523,131.056191 69.0000008,123.000002 51.0000008,123.000002 C46.6023668,123.000002 32.0000008,128 32.0000008,128 C32.0000008,128 13.975863,125.031758 9.99999989,125.961678 C-1.89417654,128.743622 4.00000011,128 1.11022302e-16,128" id="Line-7" stroke="#EEEEEE" stroke-width="2" stroke-linecap="square"></path>
                    <path d="M29,61 L39,61 L36,131 L29,131 L29,61 Z" id="Rectangle-139" stroke="#707070" stroke-width="3" fill="#FFFFFF"></path>
                    <path d="M149,61 L159,61 L159,131 L152,131 L149,61 Z" id="Rectangle-140" stroke="#707070" stroke-width="3" fill="#FFFFFF"></path>
                    <path d="M91,50 C91,48.171875 88,43 88,43 L102,43 C102,43 99,48.0833333 99,50 C99,52.75 102,57 102,57 L88,57 C88,57 91,52.8385417 91,50 Z" id="Rectangle-142" stroke="#D0D0D0" stroke-width="2" fill="#FFFFFF"></path>
                    <path d="M175,65 L175,55 L15,55 L15,65 L175,65 L175,65 Z" id="Rectangle-141" stroke="#707070" stroke-width="3" fill="#FFFFFF"></path>
                    <rect id="Rectangle-141" stroke="#707070" stroke-width="3" fill="#F3F3F3" x="53" y="0" width="85" height="45" rx="5"></rect>
                </g>
                <g id="Yakhchal-2" transform="translate(490.000000, 77.500000)" sketch:type="MSShapeGroup">
                    <rect id="Rectangle-152" fill="#F3F3F3" x="10" y="37" width="32" height="17"></rect>
                    <path d="M2.5,92 L49.6699066,92" id="Line" stroke="#D0D0D0" stroke-width="2" stroke-linecap="square"></path>
                    <rect id="Rectangle-153" stroke="#D0D0D0" stroke-width="2" fill="#F3F3F3" x="13" y="68" width="26" height="13"></rect>
                    <rect id="Rectangle-154" fill="#D0D0D0" x="19" y="69" width="3" height="4" rx="1"></rect>
                    <rect id="Rectangle-155" fill="#D0D0D0" x="29" y="69" width="3" height="4" rx="1"></rect>
                    <rect id="Rectangle-148" stroke="#D0D0D0" stroke-width="3" x="8" y="0" width="36" height="54" rx="8"></rect>
                    <rect id="Rectangle-150" fill="#D0D0D0" x="3" y="28" width="46" height="4" rx="2"></rect>
                    <rect id="Rectangle-152" fill="#D0D0D0" x="15" y="55" width="23" height="4" rx="1"></rect>
                    <rect id="Rectangle-149" stroke="#D0D0D0" stroke-width="3" x="0" y="60" width="52" height="72"></rect>
                    <rect id="Rectangle-156" fill="#F3F3F3" x="10" y="93" width="31" height="36"></rect>
                </g>
                <g id="Zobaleh-2" transform="translate(417.000000, 187.500000)" stroke="#EEEEEE" stroke-width="3" fill="#FFFFFF" sketch:type="MSShapeGroup">
                    <path d="M0,0 L24,0 L20,22 L4,22 L0,0 Z" id="Rectangle-175"></path>
                </g>
                <g id="Goldoon-2" transform="translate(74.000000, 108.500000)" stroke="#979797" sketch:type="MSShapeGroup">
                    <path d="M12,67 L47,67 L41.1666667,100 L17.8333333,100 L12,67 Z" id="Rectangle-176" stroke-width="3" fill="#FFFFFF"></path>
                    <path d="M29.5,66.5 L29.5,2.37512183" id="Line" stroke-width="3" stroke-linecap="round"></path>
                    <path d="M29.5,8.99999999 C43.5487805,8.99999999 45.5,3.65096679 45.5,0.999999994 C40.5,0.999999973 41.9878049,2.59999999 30.2804878,2.59999999 C18.5731707,2.59999999 17.5,0.999999973 13.5,0.999999994 C13.5,3.65096679 15.4512195,8.99999999 29.5,8.99999999 Z" id="Oval-166" stroke-width="2" fill="#FFFFFF" transform="translate(29.500000, 5.000000) scale(1, -1) translate(-29.500000, -5.000000) "></path>
                    <path d="M29,26 C47,26 49.5,19.3137085 49.5,16 C43.09375,16 45,18 30,18 C15,18 13.625,16 8.5,16 C8.5,19.3137085 11,26 29,26 Z" id="Oval-167" stroke-width="2" fill="#FFFFFF" transform="translate(29.000000, 21.000000) scale(1, -1) translate(-29.000000, -21.000000) "></path>
                    <path d="M29,45 C51.3902439,45 54.5,36.307821 54.5,32 C46.53125,32 48.902439,34.6 30.2439024,34.6 C11.5853659,34.6 9.875,32 3.5,32 C3.5,36.307821 6.6097561,45 29,45 Z" id="Oval-168" stroke-width="2" fill="#FFFFFF" transform="translate(29.000000, 38.500000) scale(1, -1) translate(-29.000000, -38.500000) "></path>
                    <path d="M29.5,64 C54.9634146,64 58.5,53.9705627 58.5,49 C49.4375,49 52.1341463,52 30.9146341,52 C9.69512195,52 7.75,49 0.5,49 C0.5,53.9705627 4.03658537,64 29.5,64 Z" id="Oval-169" stroke-width="2" fill="#FFFFFF" transform="translate(29.500000, 56.500000) scale(1, -1) translate(-29.500000, -56.500000) "></path>
                </g>
                <path d="M66,210.5 L566,210.5" id="Line-21" stroke="#707070" stroke-width="3" stroke-linecap="round" sketch:type="MSShapeGroup"></path>
                <path d="M26,210.5 L46,210.5" id="Line-22" stroke="#707070" stroke-width="3" stroke-linecap="round" sketch:type="MSShapeGroup"></path>
                <path d="M-1.11022302e-16,210.5 L10,210.5" id="Line-23" stroke="#707070" stroke-width="3" stroke-linecap="round" sketch:type="MSShapeGroup"></path>
                <path d="M586,210.5 L606,210.5" id="Line-24" stroke="#707070" stroke-width="3" stroke-linecap="round" sketch:type="MSShapeGroup"></path>
                <path d="M620,210.5 L630,210.5" id="Line-25" stroke="#707070" stroke-width="3" stroke-linecap="round" sketch:type="MSShapeGroup"></path>
            </g>
        </g>
    </g>
</svg>